<?xml version="1.0" encoding="utf-8"?>
<!-- Generator: Adobe Illustrator 19.2.0, SVG Export Plug-In . SVG Version: 6.00 Build 0)  -->
<svg version="1.1" id="Layer_1" xmlns="http://www.w3.org/2000/svg" xmlns:xlink="http://www.w3.org/1999/xlink" x="0px" y="0px"
	 viewBox="0 0 177.1 176.2" style="enable-background:new 0 0 177.1 176.2;" xml:space="preserve">
<style type="text/css">
	.st0{fill:#FFFFFF;}
</style>
<circle cx="88.6" cy="88.1" r="82.8"/>
<g>
	<path class="st0" d="M59,43.8h30.3c18.3,0,32.6,5,32.6,22c0,7.9-4.3,16.4-11.5,19.1v0.5c9,2.3,15.9,9,15.9,20.8
		c0,18.1-15.2,26.1-34.3,26.1H59V43.8z M88.3,79.3c9.8,0,14-4.1,14-10.5c0-6.9-4.5-9.5-13.8-9.5h-9.5v20H88.3z M90.2,116.9
		c10.9,0,16.4-3.8,16.4-11.9c0-7.7-5.4-10.9-16.4-10.9H78.9v22.8H90.2z"/>
</g>
</svg>
