<?xml version="1.0" encoding="utf-8"?>
<!-- Generator: Adobe Illustrator 25.0.0, SVG Export Plug-In . SVG Version: 6.00 Build 0)  -->
<svg version="1.1" id="Слой_1" xmlns="http://www.w3.org/2000/svg" xmlns:xlink="http://www.w3.org/1999/xlink" x="0px" y="0px"
	 viewBox="0 0 220.9 78.2" style="enable-background:new 0 0 220.9 78.2;" xml:space="preserve">
<style type="text/css">
	.st0{fill:#FFFFFF;}
</style>
<g id="Слой_1-2">
	<g id="XMLID_1_">
		<g>
			<path class="st0" d="M183,11.9c-0.2,0-0.7,0.2-0.8-0.1c-0.1-0.2,1.2-0.8,2.5-1.7c1.4-0.9,2.7-2.1,3.8-3.5c0.8-1.1,1.2-2,2.6-3.7
				c0.4-0.6,1-1,1.7-1.1c0.5,0,1,0.3,1.3,0.7c0.3,0.4,0.3,1,0.2,1.5c-0.2,1,0.3,2.8,2.7,11.7c2.2,7.8,3.2,11.7,3.9,13.5
				c1.3,3.5,1.7,3.8,2.3,6.3c0.6,2.3,0.8,4.1,1.5,4.2c0.7,0.1,1.7-1,2.6-2.2c0.4-0.6,0.4-0.6,1.6-2.3l1.2-1.5c0.7-0.9,1-1.3,1.1-1.2
				s0,0.4,0,0.6c-0.1,0.3-0.2,0.6-0.4,0.9c-0.5,1.1-0.8,1.6-0.8,1.7c0.1,0.1,0.3-0.2,0.9-0.5c1.1-0.7,1.2-0.4,2.5-1
				c0.7-0.3,0.9-0.4,1-0.3c0.1,0.1-0.3,0.6-0.7,0.9c-0.5,0.3-1,0.5-1.5,0.7c-0.5,0.3-0.9,0.7-1.2,1.1c-2.2,2.6-3.3,3.9-3.8,4.7
				c-1.4,2.1-1.6,3.1-2.4,3.1c-0.8,0-1.4-1-1.7-1.6c-0.8-1.5-1.1-3.2-1-4.9c0.2-2.5-0.7-2.4-4.2-14.1c-1.8-5.7-2.6-8.6-3-10.1
				c-1.1-4.7-1.5-8-2.8-8.1c-0.6-0.1-0.7,0.6-2.8,2.7C188.7,8.6,185.8,11.4,183,11.9z"/>
			<path class="st0" d="M186.3,54.3c-4.1-2.5-10.2-4.6-10.1-4.8c0.8,0,1.5,0.2,2.3,0.4c1.4,0.3,2.7,0.7,4,1.2
				c0.5,0.2,0.7,0.3,3.2,1.4c5.1,2.2,5.3,2.2,5.8,2.7c0.5,0.5,1,0.8,1.7,1c0.6,0.1,1.4,0,3.5-1.1c2.6-1.4,4.2-2.3,4.2-3.6
				c0-0.5-0.2-0.9-0.4-1.3c-0.6-0.8-1.4-1.4-2.3-1.7c-1.2-0.6-1.9-0.9-2.6-1.2c-1.7-0.8-3.8-1.9-3.7-2.2c0-0.1,0.4,0,1-0.2
				c0.4-0.1,0.7-0.2,1-0.5c0.8-0.7,0.5-2.2,0.7-2.2c0.2,0,0.4,1.3,0.4,1.3c-0.1-2-0.4-4.1-0.9-6.1c-0.3-1.6-0.5-2.5-0.8-3.5
				c-0.9-3.1-2-4.9-1.9-5c0.1,0,0.8,0.7,1.6,2.1c0.6,1,1.3,2.4,1.9,3.9c0.8,2.4,2,7.5,1.4,9.6c-0.2,0.4-0.2,0.8,0,1.1
				c0.3,0.5,0.9,0.5,1.7,0.7c0.9,0.3,1.8,0.7,2.6,1.2c2.2,1.1,2,1.3,2.6,1.4c0.3,0,1.1,0,3.9-2.3c2.3-2,1.9-2,3.3-3
				c1.1-0.8,1.8-1,2.3-2c0.2-0.5,0.5-1,0.9-1.3c0.5-0.4,0.9-0.3,1.6-0.5c1.4-0.5,1.6-1.5,2-1.4c0.7,0.2,0,2.8,0.5,6.2
				c0.2,1.3,0.5,2.6,1,3.9c1.2,3.2,2.5,4.8,2,6.9c0,0.1-0.3,1.2-0.6,1.2c-0.2,0-0.3-0.2-0.7-1.4c-0.2-0.5-0.4-1.1-0.5-1.7
				c-1.3-5.3-2.3-9.6-4.1-10c-1.8-0.4-2.3,3.2-7.2,5.9c-0.7,0.4-1.7,0.9-1.7,1.6c0,0.9,1.8,1.4,3.4,2.1c3.9,1.7,8.4,5.1,8.2,7.4
				c-0.1,1-1.1,1.5-2.7,2.5c-8,4.9-13.6,8.4-15.3,11.7c-0.8,1.4-1.9,2.5-3.3,3.2c-0.2,0.1-0.5,0.2-0.6,0.1c-0.4-0.4,4.1-4.8,3.7-5.2
				c-0.3-0.3-2.7,1.4-2.8,1.3c1.2-1.1,2.4-2,3.7-2.9c4-3.1,3.7-3.2,6.9-5.7c4.2-3.2,6.9-4.5,6.6-5.8c-0.1-0.2-0.2-0.3-1.2-1.2
				c-2.1-1.7-1.7-1.5-3.2-2.7c-1.9-1.5-1.9-1.2-3.5-2.5c-1-0.8-1.1-1-1.5-1.1c-1.3-0.1-1.4,1.9-3.9,3.7c-1.5,1.1-2.7,1.3-3.1,2.6
				c-0.2,0.7,0,1.1-0.4,1.5c-0.8,0.8-3,0.4-4-0.9c-0.5-0.6-0.3-0.8-0.8-1.5c-0.7-0.7-1.5-1.2-2.4-1.4
				C188.3,55.8,187.3,55.1,186.3,54.3z"/>
			<path class="st0" d="M153.4,8.2c0.6-0.7,1-0.9,1.4-0.9c1,0,1.6,1.6,2.3,3.1c1,1.9,2.3,3.7,3.4,5.5c3,5,2.7,4,4.4,7
				c0,0,3.4,6.1,4.5,5.9c0.3,0,0.5-0.1,0.8-0.2c0.5-0.5,1.3-1.3,2.2-2.2c2.5-2.5,3.4-3.3,4.8-4.6c3.2-3.1,6.3-6.4,9.2-9.9
				c0.5-0.6,1.1-1.2,1.7-1.6c0.6-0.4,2.2-1.4,3.1-0.9c0.7,0.4,0.7,1.3,0.9,3.3c0.1,1.6,0.4,3.3,0.5,5c0.3,2.8,0.9,5.6,1.6,8.4
				c0.2,1,0.5,1.9,0.9,2.8c0.4,0.5,0.6,1.1,0.7,1.7c0,0.1,0.1,1.1-0.4,1.3c-0.5,0.2-1.1-0.4-1.3-0.5c-0.2-0.2-0.3-0.3-0.4-0.5
				c-0.4-0.5-0.5-1.1-0.9-1.9c-0.1-0.2-0.5-0.8-1.4-2.2s-1.1-1.7-1.6-2.5c-0.7-1.2-1.1-1.9-1-2.1s1.1,0.5,1.3,0.7
				c0.9,0.7,1.2,1.3,1.4,1.2c0.2-0.1,0-0.5-0.1-1.4c-0.1-0.9,0-0.4-0.2-1.9c-0.2-1.8-0.4-2.5-0.9-5.3c-0.4-2.4-0.4-2.8-0.7-2.9
				c-0.3-0.1-1.2,0.2-3.9,3c-2.3,2.4-3.3,3.8-5.1,5.7c-2.3,2.5-2,1.8-3.5,3.4c0,0-4.7,5.4-6.8,6.8c-0.2,0.1-0.5,0.2-0.7,0.2
				c-0.5-0.1-0.8-0.8-1.1-1.3c-0.5-0.8-1.1-1.5-1.7-2.2c-1.6-2.2-2.6-4-4.5-6.7c-2.6-3.7-2.5-3.2-3.7-5.2c-0.7-1.2-1.7-2.4-2.5-3.6
				s-1.1-1.7-1.6-1.7c-0.7,0-1.4,0.9-2.2,2c-0.4,0.7-0.8,1.4-1.3,2c-0.2,0.2-0.3,0.3-0.3,0.4c0,0.7,2.5,0.8,5.3,2.1
				c1.6,0.8,3.2,1.8,3.1,2.1c-0.2,0.4-3.4-1.8-8-1.6c-1.3,0.1-2.5,0.3-3.3-0.2c-0.1-0.1-0.2-0.2-0.3-0.3c-0.7-0.7-0.8-1.8-0.3-2.6
				c0.4-0.5,0.9-0.3,1.8-0.7C150.9,13.4,150.8,11.1,153.4,8.2z"/>
			<path class="st0" d="M130.2,7.9c0.5,0,1-0.1,2-0.1c2-0.2,16.7-1.4,20.1-6c0.2-0.3,1.2-1.8,2.6-1.8c0.4,0,0.7,0.1,1,0.4
				c0.3,0.4,0.3,1,0.1,1.5c-0.4,0.7-1.2,1.2-2,1.4c-0.9,0.3-2.3,1.6-5.1,4.1c-1.2,1.1-2.3,2.2-4.3,4.4c-2.2,2.4-3.6,3.8-3.9,3.8
				c0,0,0,0,0,0c-0.2-0.1,0.3-1.1,0.5-1.6c0.3-0.5,0.6-1,0.9-1.5c1-1.2,2-2.4,3.1-3.6c1.6-1.8,2.4-2.7,2.3-2.8
				c-0.1-0.1-0.9,0.4-2.3,1.1c-1.1,0.5-2.3,1-3.4,1.3c-3.5,1-7.1,1.4-10.8,1.3c-2.4,0-4.9-0.2-4.9,0.2c0,0.1,0.1,0.1,0.6,0.4
				c0.7,0.4,1.4,0.7,2.1,1c1.4,0.5,2.2,0.9,3.1,0.7c0.5-0.1,0.9-0.2,1.4-0.1c0.7,0.2,1.3,0.6,1.7,1.1l2.5,1.7
				c0.3,0.2,0.5,0.3,0.8,0.5l-0.6,1.1c-2.4-1.4-5.5-2.7-8.8-3c-2.9-0.4-5.8-1.3-8.5-2.6c-0.4-0.2-0.7-0.5-0.9-0.9
				c-0.4-0.7-0.3-1.5,0.2-2.1c0.3-0.2,0.6-0.3,0.9-0.3C123.8,6.5,125.9,7.9,130.2,7.9z"/>
			<path class="st0" d="M152.9,31.7c-1.3-0.2-24.6-4.3-29.1-2.9c-0.8,0.3-1.8,0.3-2.6-0.1c-0.7-0.7-1-1.7-0.8-2.7
				c0.8-3.6,10.4-5.6,17.8-5.3c2.2,0.1,3.7,0.4,3.8-0.1c0.2-0.6-1.6-2.5-4.4-4.2l0.6-1.1c0.6,0.4,1.2,0.7,1.9,1
				c1.2,0.6,2.5,1.2,3.8,1.7c1,0.5,2,0.9,3,1.4c4.2,2.1,8.3,4.3,12.5,6.4c0.7,0.3,2.9,1.4,2.8,2.4c-0.1,0.4-0.4,0.7-0.8,0.9
				c-0.3,0.1-0.7,0.1-1-0.1c-0.2-0.1-0.4-0.1-0.7-0.2c-0.6-0.2-1.2-0.6-1.7-1.1c-1.8-1.7-9.5-4.1-17-4.4c-2.1-0.1-4.2,0-6.3,0.2
				c-1.6,0.1-3.2,0.4-4.7,0.8c-0.3,0.1-3.8,1.1-3.7,1.7c0,0.3,1.3,0.3,4.6,0.5c0,0,2.9,0.1,6.5,0.4c2.2,0.2,4.4,0.4,7,0.7
				c2.8,0.4,4.8,0.8,7.2,1.3c3.1,0.6,5.6,1.1,7.8,1.6c4,0.8,6.8,1.4,9.4,2.2c0.1,0,0.3,0.1,0.4,0.1c7.7,2.3,12.2,3.7,15.2,6
				c0,0,1.2,1.1,1.5,0.8c0.3-0.3-1.9-4.1-3.5-6.2c-0.4-0.4-0.6-0.9-0.6-1.4c0-0.9,0.9-1.8,1.1-1.7c0.2,0.1,0.1,0.6,0.2,1
				c0.4,1.5,1.2,2.8,2.2,4c3.2,4,4.7,6,4.9,6.1c0.4,0.3,1.6,1.1,1.7,2.2c0,0.3,0,0.7-0.3,1c-0.3,0.3-0.8,0.4-1.1,0.4
				c-0.3,0-0.6,0-0.6,0c-0.9-0.2-1.6-0.7-2.2-1.4C186.2,41.6,172.9,35.2,152.9,31.7z"/>
			<path class="st0" d="M103.6,16.5c-1-4.9-1.6-8-3.8-9.9c-0.5-0.4-1.6-1.5-1.5-2.4c0.1-0.9,1.2-1.5,1.3-1.5
				c2.3-1.1,4.1,1.6,7.4,0.9c1.5-0.3,2.9-1.1,3-0.9c0.1,0.2-0.2,0.5-0.3,0.7c-1.1,1.2-2.7,1.9-4.3,2c-2.4,0.3-3.9-0.3-4.2,0.3
				c-0.2,0.4,0.2,1,0.5,1.4c2,2.9,3.4,6,4.2,9.4c0.3,1.6,0.1,2.6,0.8,2.8s1.7-1.3,2.4-2.4c0.6-0.9,1.1-1.8,1.5-2.7
				c0.8-1.8,0.9-2.7,1.7-3.1c0.1-0.1,0.9-0.5,1.5-0.2c1,0.6,0.4,3.2,0.1,4.8c-1,5.4-1.4,10.8-1.3,16.2c0,2.2,0.1,2.5,0.1,5.7
				c0,0.2,0,3,0.1,6.2c0,0.6,0,1.1,0.1,1.7c0.3,1.8,1,2.4,0.8,3.5c0,0.1-0.2,1-0.7,1.1c-0.8,0.2-1.8-1.2-1.8-1.3
				c-0.6-0.9-0.8-2-0.8-3.1c0-1-0.7-2.6-2-5.7c-2.5-6-6.4-10.4-6.1-10.7c0.3-0.2,4,2.9,6.6,7.7c1.1,2.1,1.4,3.4,1.8,3.3
				c0.9-0.1-0.2-6.3,0.3-16.4c0.2-3.9,0.5-6.3-0.1-6.5c-1.4-0.4-5.2,10.3-6.6,9.9C103.3,27,104.9,22.8,103.6,16.5z"/>
			<path class="st0" d="M89.3,21.8c1.3,1.5,1.6,2.5,2,2.3c0.2-0.1,0.2-0.3,0.2-0.9l1.4,0c-0.1,2.6-0.1,4-0.1,4.5
				c0.3,2,1,3.9,0.1,4.6c-0.3,0.2-0.7,0.3-1,0.2c-0.6-0.2-1.1-0.6-1.4-1.2c-0.3-0.6-0.5-1.4-0.5-2.1c-0.1-1.3-0.9-2.5-2.6-4.7
				c-1.1-1.4-2.3-2.7-3.7-3.9c-0.9-0.9-2-1.7-3.2-2.3c-0.6-0.2-1.1-0.4-1.6-0.8c-0.3-0.3-0.5-0.6-0.9-0.7c-0.4-0.1-0.5,0.1-1,0.2
				c-0.6,0.2-1.3,0.1-1.9-0.3C75,16.5,74.9,16,75,15.5c0.2-0.6,0.9-0.8,1.4-0.9c3.5-1,4-0.4,5.9-1.2c0.8-0.5,1.7-0.7,2.6-0.5
				c0.1,0,0.8,0.3,0.8,0.5c0,0.2-0.5,0.4-0.7,0.5c-3.1,1.1-4,1.5-4,1.8c0,0.3,0.6,0.4,1.4,0.9c0.5,0.2,1.3,0.9,2.8,2
				C86.8,19.5,88.1,20.6,89.3,21.8z"/>
			<path class="st0" d="M56.8,9c-1.7-0.7-3.2-0.7-4.4-2.1c-0.2-0.2-0.7-0.9-0.5-1.3c0.4-0.7,2.1-0.3,3.4-0.2
				c2.6,0.4,5.3,0.3,7.9,0.5C65,6.1,67.6,6,72.9,6l6.6-0.1C83.2,5.9,85,5.9,87,5.8l3.4-0.1c1-0.3,2-0.3,3-0.1
				c0.2,0.1,1.1,0.4,1.3,1.1c0.1,0.4,0,0.8-0.3,1.2c-0.4,0.6-0.5,2.2-0.9,5.2C93.2,16.5,93,19.6,93,22c0,0.4,0,0.9,0,1.2l-1.4,0
				c0-0.7-0.1-1.8-0.2-3.3c-0.2-5.4-0.4-8.1,0.2-9.6c0.3-0.6,0.6-1.7,0.3-2.1c-0.3-0.4-1-0.2-2.2-0.1c-1.1,0-2.2-0.1-3.4-0.2
				c-1.4,0-2.9,0.1-4.3,0.3c-2.2,0.2-5.1,0.1-11.1,0c-2.9-0.1-4.3-0.1-4.9-0.1c-4.4-0.1-6.8-0.3-6.9,0.2c0,0.1,0.1,0.3,0.8,0.7
				c1.1,0.7,2.3,1.2,3.5,1.7c2.4,1.2,1.7,2.4,4,3.4c1,0.3,1.9,0.8,2.6,1.6c0.1,0.1,0.6,0.9,0.4,1.2c-0.2,0.3-0.8,0.1-1,0.1
				c-2.5-0.5-7.2-4.2-8.7-5.4C59.6,10.7,58.2,9.8,56.8,9z"/>
			<path class="st0" d="M55.9,26.8c-3.1-0.7-4.8-1-7-1.3l0.3-2c5.4,0.8,13.5,2,22.8,3.7c12.2,2.3,13.8,3.2,13.8,4
				c0.1,2.1-10.2,2.8-31,8.3c-10.9,3-21.7,6.6-32.1,11l-1.1-2.6c3.1-1.3,5.9-2.3,8.2-3.2c14.2-5.4,22-8.4,32.8-10.5
				c6.5-1.3,15.1-2.4,15.1-2.7c-0.1-0.1-1.1,0-3.1-0.3c-1.6-0.2-3.1-0.6-4.6-1.1c-0.6-0.2-0.4-0.1-6.2-1.4
				C57.2,27.1,57.6,27.1,55.9,26.8z"/>
			<path class="st0" d="M13.6,51.2c2.8-1.2,5.5-2.3,7.9-3.3l1.1,2.6c-1.1,0.4-2.2,0.9-3.4,1.4c-2.5,1-5,2.3-7.4,3.6
				c-1.3,0.8-2.7,1.5-4,2.4c-2.4,1.5-3.6,2.5-5.3,2.4c-0.8,0-1.6-0.3-2.2-0.9c-0.4-0.6-0.5-1.3-0.3-2c0.5-2.2,3.4-2.7,6.5-4.7
				c1.8-1.1,3-2.5,5.5-5.3c6.8-7.7,8.8-16,9.8-15.7c0.6,0.2,0.1,3.2-0.1,4.1c-0.1,0.8-0.4,2.2-2.7,7.4c-0.6,1.6-1.4,3.2-2.3,4.7
				C15.8,49,14.8,50.2,13.6,51.2z"/>
			<path class="st0" d="M23.8,22.5c-8.5-0.3-12.9,0-12.9-0.4c0-0.2,1.3-0.4,6.9-1.6c3.6-0.8,3.2-0.8,3.8-0.9
				c3.5-0.6,5.4-0.1,9.6,0.1c0.8,0,0.4,0,7.2-0.1c8.7-0.1,13-0.2,14-0.2c8.2,0,9.9,0.2,10.1-0.4c0.3-1.2-4.8-2.4-14.1-8.2
				c-3-1.9-5.4-3.6-6.7-2.7c-1.7,1.1-0.4,5.8-0.9,5.9c-0.5,0.1-1.4-2.8-3.4-7.2c-1.9-4.2-2.9-5.6-2.4-6c0.7-0.6,3.3,1.5,8.3,4.5
				c3.1,1.9,6.2,3.5,9.4,5.3c13.1,7.4,18.7,8.5,18.5,10c-0.5,3.2-28.6,1-28.6,1.7c0,0.2,2.5,0.6,6.7,1.2l-0.3,2c0,0,0,0-0.1,0
				c-4.1-0.5-4.3-0.2-7.9-0.7c-4-0.6-4.4-1.1-8.2-1.7C29.8,22.7,26.8,22.5,23.8,22.5z"/>
		</g>
		<g>
		</g>
	</g>
</g>
</svg>
