<svg xmlns="http://www.w3.org/2000/svg" width="120" height="120" viewBox="0 0 120 120"><path fill="#e94e1b" d="M38.58 44.608V55.99h13.972v37.002h6.692V44.608z"/><path fill="#4a4797" d="M59.048 26.156c-21.966 0-39.844 17.878-39.844 39.844s17.878 39.844 39.844 39.844S98.892 87.966 98.892 66 81.028 26.156 59.048 26.156z"/><path fill="#fff" d="M59.818 79.524l.042 2.968-18.83-11.214-.028 2.87 18.9 11.368.042 3.038-18.9-11.242-.028 2.87 18.9 11.368 19.082-11.424v-2.884l-.028.014v-9.394l6.734-4.018 7.224-4.046-1.302-.658L59.79 40.464 27.17 60.092l32.648 19.432zm-.042-35.98l27.706 16.142-7.546 4.438-3.486 2.058-16.604-9.884-.028 2.87 14.196 8.442-.126.07-.308.182-2.016 1.19-11.718-6.972-.028 2.87 9.254 5.502-2.184 1.456-.056.028-6.986-4.116-.028 2.87 4.578 2.702-4.676 2.8-27.3-16.212 27.356-16.436z"/><path fill="#1e1e40" d="M60 108c-23.156 0-42-18.844-42-42s18.844-42 42-42 42 18.844 42 42-18.844 42-42 42zm0-80.444c-21.196 0-38.444 17.248-38.444 38.444S38.804 104.444 60 104.444 98.444 87.196 98.444 66 81.196 27.556 60 27.556z"/></svg>