<svg xmlns="http://www.w3.org/2000/svg" viewBox="0 0 38.22 38.72"><defs><style>.cls-1{fill:#fff;}</style></defs><g id="Слой_2" data-name="Слой 2"><g id="Слой_1-2" data-name="Слой 1"><path class="cls-1" d="M17.18,38.38A6.25,6.25,0,0,1,15,37.87a9,9,0,0,1-3.4-1.62A6.73,6.73,0,0,1,9.78,33.1a7.2,7.2,0,0,1-.51-4.51,8.29,8.29,0,0,1,2.64-3.66,13.32,13.32,0,0,0,1.62-1.62c.45-.49.68-.79.59-1S13.42,22,13,22a4.05,4.05,0,0,0-1.36.17,6.17,6.17,0,0,0-1.87.94C8.07,24.29,8.2,25,6.55,26.21c-.81.6-1.08.61-1.37,1.1a3.53,3.53,0,0,0,0,2.81c.37,1,.8,1.1,2.22,2.89,1,1.22,1.49,1.9,1.36,2.05s-2.48-.79-3.83-2.81a9.11,9.11,0,0,1-1.28-4.34c-.18-1.58-.28-2.43.26-3.15s1.26-.5,2.64-1.62c.84-.69.72-.91,1.53-1.45a6.74,6.74,0,0,1,2.3-.93,5.52,5.52,0,0,1,2-.26c.56.06.88.2,1.11,0a1.11,1.11,0,0,0,0-1.27c-.24-.37-.58-.4-1.79-.85-1-.39-.89-.41-1.28-.51a6.3,6.3,0,0,0-2.47,0c-1.77.17-1.57.28-2.63.34s-1.54-.06-2,.25-.44.71-.77,1.7c-.58,1.76-.84,1.52-1.1,2.64a7.79,7.79,0,0,0,0,3.24,8.58,8.58,0,0,0,.34,1.36c.27.82.53,1.26.51,1.27A7.75,7.75,0,0,1,.25,24.42a8.26,8.26,0,0,1,1.28-5.53A5.74,5.74,0,0,1,3.74,16.5c1.13-.6,2.19-.54,4.08-.42a15.5,15.5,0,0,1,4.43.68c.89.29,1.59.63,1.87.34s-.23-1.49-.34-1.7C12.43,12.84,9.3,12,8.59,11.82c-1.72-.45-3-.79-4.26-.17-1.42.71-2.14,2.29-3.15,4.51-.58,1.29-.6,2-.76,2-.32,0-1-2.89.51-5.36A6.44,6.44,0,0,1,4.59,10,7.27,7.27,0,0,1,8.5,10c1.43.32,2.74,1.12,5.37,2.72,2.28,1.39,2.53,1.76,2.46,2a.52.52,0,0,1-.68.17c-.25-.25.49-1.09.68-2.05.31-1.46-.72-2.81-1.36-3.66a7.56,7.56,0,0,0-4.93-3,6.85,6.85,0,0,0-3,.25C4.66,7.25,3.59,9.22,3.31,9s.3-1.61,1.36-2.72A7.66,7.66,0,0,1,7.74,4.5a7.72,7.72,0,0,1,3.48-.73,5.24,5.24,0,0,1,2,.48A6.12,6.12,0,0,1,16,7.31c.91,1.84.31,2.21,1.28,3.66a9.39,9.39,0,0,1,1.19,2,3.87,3.87,0,0,1,.33,1.52c0,.09,0,.18,0,.19a12.87,12.87,0,0,0,1.11-2.9,12.21,12.21,0,0,0,.76-4.51A5.44,5.44,0,0,0,19.74,4c-1.27-1.57-3.51-1.66-4.51-1.7-2.58-.1-4.19,1-4.43.51s.71-1.46,1.87-2c1-.42,1.91-.26,3.66.09,2.1.41,3.15.62,4.09,1.53a6,6,0,0,1,1.45,2.72,10.88,10.88,0,0,1,.34,4.26,10.2,10.2,0,0,1-.68,3.74c-.26.58-.64,1.25-.43,1.45s.78-.12,1-.25a7,7,0,0,0,2.81-3.24c.24-.48.13-.33.6-1.36,1.18-2.62,1.62-3,1.53-3.66s-.6-1.08-2.3-2.21C21,1.37,19.36.64,19.48.25s1.74-.31,3.07.08c1.11.33,2,1,3.74,2.39C28.54,4.48,28.75,5,28.84,5.27a4.7,4.7,0,0,1-.51,3.23,21.89,21.89,0,0,1-2,3.24c-.61.89-1.16,1.83-1.79,2.72s-1.12,1.54-.93,1.87.35.26,1.61.26a12.34,12.34,0,0,0,2.3-.09c.8-.21,1.51-.93,2.9-2.38,1.69-1.76,1.87-2.29,1.95-2.55a5,5,0,0,0,0-2.47A8.46,8.46,0,0,0,31.14,6c-.88-1.42-1.82-2-1.7-2.22s1.12.29,2,.94a7.39,7.39,0,0,1,2.21,3,6.31,6.31,0,0,1,.77,4.42,6.56,6.56,0,0,1-2,2.81,22.2,22.2,0,0,1-2.13,1.7c-1.86,1.42-2.18,1.5-2.38,1.54-1,.17-1.61-.25-2.21.25a1.1,1.1,0,0,0-.43.85c0,.12.09.52,1.19,1s2.82.91,3.07.43-.52-.85-.35-1.11,1.31.46,2.81.34a4.39,4.39,0,0,0,2.64-1.19,4.26,4.26,0,0,0,.94-1.36,6,6,0,0,0,.17-2.89c-.17-2.52-.25-3.1-.09-3.15s.84,1,1.19,1.95a6.61,6.61,0,0,1,.43,4.43,6.12,6.12,0,0,1-2,3A7.61,7.61,0,0,1,33.1,22a12.6,12.6,0,0,1-3.06.77,12.86,12.86,0,0,1-3.75.17c-.56-.07-1-.49-1.36-.26a1,1,0,0,0-.17,1c.17.49.63.7,1.62,1.11,1.49.62,2.23.94,3,1.19a22.25,22.25,0,0,0,2.21.68,5.11,5.11,0,0,0,2.3.34c.83-.3.62-1,2-3.06a6.66,6.66,0,0,0,1.27-2c.31-1,.11-1.77.26-1.79s.89,1.24.77,2.64c-.09.94-.69,1.74-1.88,3.32s-1.9,2.49-2.8,2.89a5.77,5.77,0,0,1-2.9.34,8.18,8.18,0,0,1-3.83-1.11c-1.2-.71-1.13-1.68-2.21-1.95-.61-.16-1.1,0-1.53-.43s-.31-.85-.68-1a1.06,1.06,0,0,0-1.28.59c-.07.31.19.56.51,1,.65.93.48,1.25.94,2,.66,1.14,1.21.83,2.46,2.21,1,1.15.89,1.62,1.62,2s1.69.11,2.9-.26a15.83,15.83,0,0,0,3-1.36c1.37-.73,1.93-1.15,2-1s-.51,1-1.19,1.7a9.67,9.67,0,0,1-3.49,2,6.88,6.88,0,0,1-2.73.77c-1.13-.06-1.65-.61-3.66-1.79-2.24-1.31-2.6-.93-3.06-1.61s-.29-1-.85-3.92c-.16-.81,0-1.17-.26-1.27s-1,.46-1.36.93a3.92,3.92,0,0,0-.68,2,7.53,7.53,0,0,0,.6,3.15,6.74,6.74,0,0,0,1.19,2.64,6.68,6.68,0,0,0,2.55,1.45,9,9,0,0,0,3.15.93,14,14,0,0,0,2.64-.34c.1.25-2.11,2.18-4.85,2a8,8,0,0,1-3.92-1.54,8.84,8.84,0,0,1-2-1.61,8.25,8.25,0,0,1-1.27-2,5.63,5.63,0,0,1-.68-2.38,14.28,14.28,0,0,1,.34-2,7.93,7.93,0,0,1,.68-2.46,1.89,1.89,0,0,0,.42-.85,1.2,1.2,0,0,0-.34-1.11c-.49-.33-1.48.2-2,.85s-.31.88-.94,2.55a9,9,0,0,0-.76,2.13,6,6,0,0,0,.08,1.79A9.42,9.42,0,0,0,12.67,34a9.17,9.17,0,0,0,1,2C15.05,37.76,17.25,38.21,17.18,38.38Z"/></g></g></svg>