<svg xmlns="http://www.w3.org/2000/svg" viewBox="0 0 220.87 78.23"><defs><style>.cls-1{fill:black;}</style></defs><g id="Слой_2" data-name="Слой 2"><g id="Слой_1-2" data-name="Слой 1"><path class="cls-1" d="M13.59,51.17a18.51,18.51,0,0,0,3.09-3.42A28.75,28.75,0,0,0,19,43.09c2.3-5.16,2.6-6.58,2.74-7.41s.66-3.89.07-4.08c-1-.32-2.93,8-9.77,15.7-2.48,2.79-3.72,4.19-5.49,5.3-3.07,1.92-6,2.45-6.51,4.66a2.59,2.59,0,0,0,.32,2,2.81,2.81,0,0,0,2.17.89c1.72.09,2.87-.83,5.3-2.36,1.31-.83,2.68-1.57,4-2.36a59.91,59.91,0,0,1,7.4-3.64A278.93,278.93,0,0,1,54.72,39.45c20.77-5.52,31.11-6.22,31-8.32,0-.81-1.57-1.68-13.79-4-16.38-3.05-29.48-4.43-29.44-4.93,0-.74,28.05,1.53,28.59-1.71.25-1.46-5.35-2.62-18.47-10-3.11-1.76-6.3-3.4-9.36-5.28-5-3-7.63-5.1-8.3-4.46-.46.44.51,1.75,2.43,6,2,4.45,2.9,7.35,3.4,7.23s-.83-4.74.86-5.87c1.29-.87,3.67.82,6.72,2.72,9.35,5.82,14.47,7,14.13,8.17-.19.67-1.83.42-10.05.43-1,0-5.34.05-14,.17-6.82.09-6.45.11-7.23.08C27,19.51,25.1,19,21.59,19.6c-.59.09-.23.06-3.83.85-5.61,1.23-6.91,1.41-6.89,1.61,0,.38,4.41.17,12.93.43a65.65,65.65,0,0,1,8.94.6c3.77.6,4.21,1.15,8.17,1.7,3.58.49,3.84.13,7.91.68,2.32.31,4,.66,7.11,1.32,1.67.35,1.28.29,7.75,1.79,5.8,1.33,5.58,1.26,6.21,1.44a26,26,0,0,0,4.64,1.15c1.93.26,3,.13,3.06.26,0,.36-8.53,1.46-15.06,2.72C51.72,36.23,43.91,39.2,29.68,44.62,25.61,46.17,20.09,48.35,13.59,51.17Z"/><path class="cls-1" d="M85,12.83a4,4,0,0,0-2.64.51c-1.86.76-2.33.19-5.87,1.19-.54.16-1.22.37-1.45.94a1.36,1.36,0,0,0,.3,1.4,2.07,2.07,0,0,0,1.87.34c.48-.11.62-.32,1-.25s.55.36.89.68a4.41,4.41,0,0,0,1.58.81,11.91,11.91,0,0,1,3.15,2.3,23,23,0,0,1,3.7,3.87c1.68,2.26,2.52,3.39,2.59,4.72a4.41,4.41,0,0,0,.51,2.09A2.09,2.09,0,0,0,92,32.58a1.38,1.38,0,0,0,1-.22c.85-.64.18-2.56-.12-4.59-.09-.57,0-2.29.08-5.75.08-2.45.19-5.48.56-8.93.32-3,.48-4.56.85-5.15a1.6,1.6,0,0,0,.29-1.19c-.17-.7-1.06-1-1.27-1.11a5.62,5.62,0,0,0-3,.08L87,5.81c-2,.05-3.83.08-7.53.13L72.87,6c-5.26,0-7.88.05-9.66-.08-2.64-.19-5.3-.1-7.92-.47-1.22-.17-3-.48-3.36.17-.2.43.32,1.08.51,1.32,1.13,1.4,2.72,1.41,4.38,2.08a22.59,22.59,0,0,1,4,2.73c1.57,1.19,6.27,4.88,8.73,5.4.23,0,.83.18,1-.08s-.35-1.09-.43-1.2a5.42,5.42,0,0,0-2.59-1.57c-2.31-1-1.63-2.22-4.05-3.45A24.15,24.15,0,0,1,60,9.13c-.67-.43-.8-.59-.78-.72.1-.48,2.43-.33,6.87-.22.53,0,2,0,4.85.09,5.94.1,8.91.15,11.06,0A30.26,30.26,0,0,1,86.31,8a27.86,27.86,0,0,0,3.37.17c1.17-.08,1.83-.29,2.17.09s0,1.48-.26,2.08c-.58,1.55-.36,4.23-.17,9.62.09,2.6.33,4-.08,4.13s-.73-.89-2-2.34a29.64,29.64,0,0,0-4-3.24c-1.53-1.14-2.27-1.75-2.81-2-.89-.46-1.47-.62-1.45-.89s.9-.64,4-1.79c.25-.09.73-.28.72-.51S85.11,12.85,85,12.83Z"/><path class="cls-1" d="M101.29,5.64c.31-.61,1.76,0,4.2-.31a6.46,6.46,0,0,0,4.27-2c.13-.16.41-.52.3-.68s-1.51.62-3,.94c-3.26.7-5.1-2-7.4-.9-.14.07-1.2.62-1.32,1.54s1,2,1.47,2.4c2.16,1.9,2.79,5,3.8,9.86,1.3,6.33-.33,10.46.56,10.71,1.41.42,5.19-10.32,6.59-9.91.65.19.33,2.61.14,6.48-.51,10.12.51,16.28-.35,16.41-.39.06-.62-1.22-1.75-3.32-2.56-4.78-6.29-7.9-6.59-7.66s3.63,4.68,6.13,10.68c1.3,3.15,2,4.72,2,5.73a5.91,5.91,0,0,0,.83,3.15c.06.09,1.05,1.57,1.83,1.34.51-.15.68-1,.72-1.15.25-1.16-.45-1.78-.77-3.53a12.87,12.87,0,0,1-.12-1.71c-.12-3.15-.1-6-.1-6.16,0-3.17-.08-3.52-.06-5.71A85.79,85.79,0,0,1,114,15.61c.31-1.63.88-4.24-.1-4.82-.57-.34-1.43.12-1.51.17-.86.47-.91,1.3-1.74,3.15a17.48,17.48,0,0,1-1.5,2.71c-.73,1.08-1.73,2.53-2.4,2.35s-.5-1.2-.81-2.76A27.4,27.4,0,0,0,101.79,7C101.53,6.61,101.09,6,101.29,5.64Z"/><path class="cls-1" d="M144.51,11.67c2.06-2.18,3.09-3.27,4.34-4.39,2.76-2.5,4.15-3.75,5.08-4.07a3,3,0,0,0,2-1.36,1.49,1.49,0,0,0-.11-1.49,1.37,1.37,0,0,0-1-.36c-1.32,0-2.31,1.46-2.55,1.79-3.43,4.6-18.12,5.83-20.11,6-1,.08-1.46.12-2,.13-4.28,0-6.38-1.43-9.51-.51a1.63,1.63,0,0,0-.89.31,1.81,1.81,0,0,0-.19,2.05,2.15,2.15,0,0,0,.95.89A26.67,26.67,0,0,0,129,13.28c7.25.61,13.53,6.17,13.14,7.27-.16.48-1.57.21-3.82.13-7.45-.27-17,1.7-17.81,5.3a2.82,2.82,0,0,0,.76,2.68,3,3,0,0,0,2.56.13c4.51-1.35,27.75,2.7,29.1,2.93,20,3.53,33.23,9.84,34.73,11.69a3.89,3.89,0,0,0,2.17,1.4c.2,0,1.27.24,1.78-.38a1.45,1.45,0,0,0,.26-1c-.08-1.12-1.24-1.87-1.66-2.17-.18-.13-1.76-2.13-4.92-6.13a10.54,10.54,0,0,1-2.17-4c-.09-.36,0-.89-.19-1s-1.06.79-1.08,1.72a2.27,2.27,0,0,0,.56,1.45c1.62,2.11,3.83,5.89,3.51,6.21s-1.47-.8-1.47-.8c-3-2.39-7.58-3.75-15.56-6.12-4-1.19-8.46-1.94-17.14-3.71-2.41-.49-4.45-.9-7.24-1.27-2.62-.35-4.81-.53-7-.7-3.53-.29-6.48-.42-6.48-.42-3.29-.17-4.51-.17-4.56-.51-.1-.58,3.39-1.57,3.7-1.66a25.21,25.21,0,0,1,4.69-.83,41.27,41.27,0,0,1,6.26-.19c7.46.34,15.23,2.74,17,4.4A5.42,5.42,0,0,0,160.52,29a1.42,1.42,0,0,0,1,.06,1.31,1.31,0,0,0,.77-.89c.16-1-2.13-2.08-2.78-2.39C154.34,23.24,149.27,20.43,144,18a49.37,49.37,0,0,1-6.45-3.22l-2.52-1.66A3.76,3.76,0,0,0,133.29,12a3.81,3.81,0,0,0-1.4.09c-.9.12-1.63-.21-3.07-.73a16.21,16.21,0,0,1-2.07-1c-.58-.29-.65-.36-.64-.41,0-.32,2.46-.16,4.85-.16a36,36,0,0,0,10.79-1.34A30.25,30.25,0,0,0,145.2,7.1c1.38-.68,2.16-1.24,2.28-1.1s-.68,1-2.32,2.81a46.92,46.92,0,0,0-3.07,3.56,9.75,9.75,0,0,0-.92,1.53c-.24.5-.71,1.47-.54,1.59S142.17,14.14,144.51,11.67Z"/><path class="cls-1" d="M159.14,19.42c-.16.4-3.37-1.81-8-1.61-1.54.07-2.83.38-3.62-.45a2.18,2.18,0,0,1-.29-2.58c.4-.54.95-.35,1.75-.67,1.89-.76,1.8-3,4.47-5.94.63-.69,1-.94,1.41-.92,1,0,1.56,1.57,2.29,3.09,1,1.95,2.31,3.66,3.42,5.52,3,5,2.74,4,4.44,7,0,0,3.36,6.08,4.53,5.94a4.22,4.22,0,0,0,.8-.19h0c.5-.52,1.26-1.3,2.2-2.24,2.47-2.46,3.4-3.27,4.79-4.62a123.61,123.61,0,0,0,9.19-9.88,7.33,7.33,0,0,1,1.74-1.61c.59-.4,2.17-1.45,3.11-.94.65.36.68,1.28.85,3.28.14,1.65.36,3.3.53,5A58.56,58.56,0,0,0,194.38,26a12.28,12.28,0,0,0,.92,2.83,3.7,3.7,0,0,1,.74,1.74c0,.15.07,1.11-.42,1.34s-1.07-.37-1.27-.55c-.73-.64-.78-1.25-1.34-2.39-.09-.18-.53-.84-1.4-2.17s-1.12-1.69-1.64-2.55c-.69-1.16-1.15-1.94-1-2.08s1.08.55,1.31.74c.88.69,1.2,1.26,1.37,1.18s0-.55-.12-1.44,0-.44-.23-1.95c-.23-1.79-.39-2.51-.86-5.29-.4-2.4-.39-2.76-.73-2.91s-1.18.17-3.92,3c-2.28,2.4-3.35,3.79-5.15,5.71-2.31,2.47-2,1.75-3.49,3.44,0,0-4.71,5.44-6.81,6.77a1.19,1.19,0,0,1-.74.19c-.51-.07-.77-.77-1.05-1.34a23.81,23.81,0,0,0-1.66-2.23c-1.55-2.16-2.63-4-4.53-6.74-2.55-3.67-2.52-3.16-3.73-5.18-.74-1.24-1.68-2.35-2.46-3.56s-1.05-1.7-1.63-1.73c-.74,0-1.41.9-2.2,2a16.84,16.84,0,0,1-1.34,2c-.22.25-.29.3-.29.42,0,.68,2.51.8,5.33,2.07C157.64,18.08,159.26,19.14,159.14,19.42Z"/><path class="cls-1" d="M183,11.87c2.84-.43,5.74-3.28,6.13-3.67,2.11-2.11,2.23-2.81,2.84-2.74,1.29.15,1.7,3.43,2.81,8.14.37,1.58,1.24,4.43,3,10.15,3.53,11.66,4.41,11.58,4.24,14.1a9,9,0,0,0,1,4.89c.33.58.92,1.62,1.69,1.62s1-.93,2.4-3.06c.55-.84,1.64-2.13,3.83-4.71a4.21,4.21,0,0,1,1.24-1.13,7.93,7.93,0,0,0,1.53-.74c.42-.3.81-.75.74-.86s-.32,0-1,.29c-1.21.63-1.35.34-2.46,1-.57.33-.84.59-.92.51s.26-.61.76-1.69a2.94,2.94,0,0,0,.39-.9c0-.13.11-.52,0-.57s-.46.37-1.12,1.25L208.9,35.3c-1.2,1.68-1.12,1.7-1.56,2.26-.89,1.14-1.82,2.33-2.56,2.18s-.93-1.9-1.5-4.22c-.6-2.47-1-2.85-2.33-6.32-.66-1.78-1.75-5.7-3.91-13.47C194.57,6.82,194.15,5,194.31,4a2,2,0,0,0-.22-1.47,1.64,1.64,0,0,0-1.28-.7,2.36,2.36,0,0,0-1.69,1.09c-1.43,1.7-1.82,2.62-2.65,3.73a15.22,15.22,0,0,1-3.76,3.51c-1.27.84-2.58,1.43-2.49,1.66S182.76,11.9,183,11.87Z"/><path class="cls-1" d="M204,52.34c-1.29-.08-1.41,1.9-3.86,3.7-1.5,1.11-2.69,1.27-3.13,2.56-.25.74,0,1.12-.38,1.5-.77.77-3,.36-4-.86-.47-.58-.26-.84-.79-1.5a5.36,5.36,0,0,0-2.4-1.44,20.2,20.2,0,0,1-3.12-1.95c-4.06-2.55-10.16-4.56-10.06-4.85a7.74,7.74,0,0,1,2.26.44,34.8,34.8,0,0,1,4,1.23c.48.18.66.26,3.17,1.36,5.1,2.22,5.32,2.25,5.8,2.66a3.62,3.62,0,0,0,1.7,1c.65.13,1.43,0,3.51-1.09,2.57-1.4,4.19-2.29,4.21-3.63a2.41,2.41,0,0,0-.41-1.28,4.75,4.75,0,0,0-2.32-1.69c-1.18-.57-1.86-.86-2.56-1.17-1.72-.78-3.79-1.85-3.68-2.15,0-.12.37,0,1-.19a2.89,2.89,0,0,0,1-.47c.82-.7.52-2.2.68-2.21s.36,1.32.38,1.32a48.1,48.1,0,0,0-.85-6.11c-.3-1.64-.46-2.45-.76-3.55-.88-3.14-2-4.91-1.85-5S193.73,31.36,195,35c.82,2.4,2,7.52,1.4,9.58a1.41,1.41,0,0,0,0,1.15c.27.45.86.46,1.65.66a14.4,14.4,0,0,1,2.59,1.22c2.17,1.14,2,1.35,2.56,1.4.34,0,1.05,0,3.87-2.35,2.32-2,1.89-2,3.31-3,1.11-.77,1.8-1,2.33-2a3.32,3.32,0,0,1,.86-1.31c.52-.41.9-.29,1.63-.55,1.38-.49,1.63-1.5,2-1.37.65.2,0,2.75.48,6.19a19.52,19.52,0,0,0,1,3.9c1.15,3.23,2.53,4.81,2,6.89,0,.09-.28,1.15-.61,1.15-.15,0-.29-.23-.7-1.37a16.88,16.88,0,0,1-.54-1.66c-1.27-5.29-2.3-9.56-4.13-10s-2.28,3.2-7.23,5.94c-.69.39-1.71.89-1.69,1.57,0,.89,1.78,1.41,3.35,2.07,3.93,1.68,8.45,5.07,8.17,7.41-.12,1-1.09,1.53-2.68,2.52-8,4.92-13.62,8.44-15.35,11.71a8.2,8.2,0,0,1-3.29,3.22c-.24.12-.52.23-.61.13-.41-.45,4.11-4.76,3.7-5.23-.27-.32-2.69,1.39-2.77,1.28a37.68,37.68,0,0,1,3.7-2.94c4-3.07,3.67-3.25,6.86-5.68,4.24-3.23,6.93-4.51,6.61-5.78-.06-.24-.18-.29-1.25-1.15-2.07-1.67-1.69-1.54-3.16-2.68-1.93-1.5-1.92-1.19-3.54-2.52C204.51,52.59,204.4,52.37,204,52.34Z"/></g></g></svg>