<?xml version="1.0" encoding="utf-8"?>
<!-- Generator: Adobe Illustrator 25.0.0, SVG Export Plug-In . SVG Version: 6.00 Build 0)  -->
<svg version="1.1" id="Слой_1" xmlns="http://www.w3.org/2000/svg" xmlns:xlink="http://www.w3.org/1999/xlink" x="0px" y="0px"
	 viewBox="0 0 214 469" style="enable-background:new 0 0 214 469;" xml:space="preserve">
<style type="text/css">
	.st0{fill:#F2E5E8;}
	.st1{fill:#FFFFFF;}
	.st2{fill:#313131;}
	.st3{fill:#6A6A6A;}
	.st4{fill:#363636;}
</style>
<path class="st0" d="M74,0c8.1,3.4,21.2,1,30,1C95.9-2.4,82.8,0,74,0z"/>
<path d="M90,108c2.6,1.1,6.3,2,8.1,4.3c2.5,3.3-0.1,8.2-3.4,9.8c-3.5,1.7-8.1,0.7-11.7-0.1c2.3,2.9,6,3.2,8.7,5.5
	c5.2,4.6,2.4,10.2,0.3,15.5c2.4,0.7,4.5,0.9,7,1l-4,5c-1.2-1-1.6-1.3-3-2c-2.5,6.2-2.7,10.6,2,16c-10.1,6.4-24.2-6.9-34-9
	c6.3,11.8,17.3,28.8,32,29c-1.1,1.5-1.5,1.9-3,3c0.8,1.3,0.7,1.2,2,2c-8.9,3.5-15.3-5.6-23-9c-1.1-6.7-9.6-14.4-13.7-20
	c-1.5-2.1-3.9-5.6-7-4.4c-2.5,1-2.7,5.1-3.3,7.3l2-1l-1,4c-1.7-1-3.1-1.5-5-2l-1,5c-1.5-1-1.2-1-3-1l2,7c-4.9-0.1-3.9,6.6-3,10h-4
	c0.7,9.1-0.4,17.9-0.2,27c0.1,5.7,1.1,11.4,1.1,17c0,8.6-2.1,17.3-1.6,26c0.3,5.4,2,10,3.6,15c2.7,8.7,0.8,20.1,10.2,25
	c0.4,8.2,11.8,1.5,12.8,9.4c0.1,1.1-0.5,2.6-0.8,3.6c4.2,1.6,7.6,5.6,12,6.5c10,1.9,20-3.9,27,5.5l-4-1c-0.6,4-0.6,6.8,3,9
	c-0.8-1.3-0.7-1.2-2-2l1-4l5,1l-3,3c2.4,5.2,3.1,8.8-3,11c-0.1,1.6-0.4,2.5-1,4l8,3c-0.6,2.1-0.9,3.8-1,6c-8.6-2.1-22.1-1.2-27-10
	c-7.9,1.9-12.7,1.7-16,10c5,1.1,10,0.7,15,1.3c8.1,1,15.9,2.9,24,3.7c-1.9,0.8-2.9,1-5,1c4.7,3.7,9.5,2.1,15,3
	c-4.5,2.7-8.7,3.9-14,4c-0.9-2.5-1.5-3-4-4c-4.4,4.5-9.8,7.6-16,9c2.9,1.2,5.9,1,9,1c0.7,5.5,2.1,10.6-2,15c0.9-4.9,0.1-8.5-5-10v9
	c-4-5-5.5-9.9-7-16c-4.3,3.6-10.9,8.8-7.2,15c2,3.5,7.3,6.6,7.6,11c0.2,3.8-4.7,7.6-6.3,11l8-4c1.2,3.8,3.5,5.3,7,7
	c-3.9,5.8-9,11.2-11,18c5.5-4.6,10-10,16-14c0,6.9-0.2,17.2-4.7,22.9c-6.3,7.9-20.7,5.2-29.3,4.3c-3.4-0.4-6.9-0.3-9.6-2.7
	c-5.5-5-4-14-6.4-20.5c-2.4,5.7-2.4,12.3-5.1,18c-1.2,2.4-3.6,5-2,7.8C25,445.2,36.7,445,42,445c15.6,0,40.2,1.8,42-19l6,1
	c-3.2,5.5-8.5,10.4-9,17c8.9-8.2,20-23.7,33.7-15.4c7.1,4.2,11.2,12.4,18.3,16.4l-9-17h6c1.8,20.2,27,20.9,43,21
	c4.7,0,15.1,0.5,18.4-3.4c2.5-3-0.5-5.8-1.7-8.7c-2.2-5.5-3.5-13-3.7-18.9c-4.5,6-1.9,16.4-8.4,21.1c-3.2,2.3-7.9,1.9-11.6,1.9
	c-8.8,0-20.2,1.5-26.5-6.1c-4.4-5.3-4.5-16.2-4.5-22.9c5.8,4.1,10.2,9.9,16,14c-2.8-6.7-8-12.1-10-19c3.3-1.3,4.9-2.5,6-6l9,5
	c-1.8-3.5-7.3-7.9-6.7-12c1.1-8.1,13.8-10.2,6.9-19.7c-0.8-1.1-2.1-2.1-3.3-2.8c-1.6-0.9-3.2-1.2-5-1.6c0.5,5.3-2,9.3-4,14
	c-1.7-3.4-1.4-6.4-2-10h-2c-2.2,4-3,6.5-2,11c-3.1-3-5-10.8-1-14.1c2-1.6,5.6-0.9,8-0.9c-2.4-2-5.2-2.5-7.8-4.1
	c-4.7-2.9-7.1-6.6-13.2-5.9c0,1.8,0,1.5,1,3c-5.1-0.2-9.2-2.3-14-4c4-1.1,7.9-0.4,12-1l-2-4c1.7,0.8,2.6,1.6,4,3
	c0.9-1.4,1.4-2.4,2-4c10.6,1.2,22.3-1,33-1c-1.6-8.9-8-10.3-16-11c-6.4,7.7-21.6,8.2-31,9c1.4-1.4,2.1-2.3,3-4c1.5,1,1.2,1,3,1
	c-1.1-5.3,0.6-8.2,6-9c-0.1-1.7,0.2-3.9-1-5.4c-2.1-2.6-10.5-2.6-5.6-7.8c0.7-0.7,1.7-1.1,2.5-1.5c1-0.5,2.1-0.9,3.1-1.3
	c-2.4-4.6-3.5-12.3-9-8c2.2-7.2,10-5.1,16-5.5c3-0.2,6-1.1,9-1.5c-5.6-2.4-13.9,0-20,0v-4c1.9,1.3,1.1,1.3,3,0c0.5-3.7,4.9-3.2,8-4
	l1,4c0.7-1.2,0.7-1.5,1-3l16-1l-3,5c6.1-2.5,12.5-4,16-10c-2.5,0.8-4.7,1.8-7,3c2.5-2.7,5.3-5.3,9-6c1.6-3.2,4.4-5.8,6-9
	c0.7-1.4,0.4-3.5,1-5c2.4-5.6,4.6-9.8,6-16c0.2-1.1,1.8-2.9,2-4l-1-2c2.2-7.8,0-16.8,2-25c0.5-1.9,2.3-3.2,3-5c1.2-2.8-1.2-2.4-2-4
	c-1.7-3.3,0.8-9.3,0-13c-0.2-0.9-1.7-2.1-2-3c-1.3-3.9,0.2-10.6,1-14c0.6-2.4-0.5-4.2-1-6c-0.6-2.5,0.4-5.4,0-8l-2-1
	c-1.5-3.1,0.9-3.3,2-3c-1.4-3.3-2.1-6.6-3-10l-2,3l-3-4c1.5-2.9-0.4-4.3-2.6-6.5c-4.2-4.2-11.4-7.3-17.3-4.8
	c-5.8,2.5-10.3,14.1-14,19.3c-6.5,9-15.2,15.3-25.1,20v-2l-5,3c-0.8-2.7-1.6-3.5-4-5c1-1.5,1.4-2.3,2-4c1,1.5,0.8,1.4,2,2
	c2.3-2.8,4.5-5,8-3c7.8-3.3,20.6-11.4,20-21c3.3-1.3,4.9-2.5,6-6c-8.1,3.1-14.8,9.6-23,12.4c-4.4,1.5-9.4,0.5-14,1.6
	c0-1.8,0-1.5-1-3l-3,1v-3l-5,1c5.4-2.7,10.6-0.8,14-7l2,1c0.1-2.4-1.6-4.5-1.4-6.9c0.5-5,8.8-4.8,12.4-5.1v-2
	c-6.4-0.3-14.1-5.6-5.9-11.1c2.9-2,6.5-1.8,9.9-1.9c-0.6-2.3-0.5-3.7,0-6c-2-0.4-4.9-0.3-6.7-1.3c-4.4-2.3-3.3-9.6-3.3-13.7
	c4.6-0.9,10.3-2,13-6c-2.4,0.2-4.6,0.3-7,0c5.7-4.5,12.3-7.8,16.5-14c3.5-5.2,3-11.1,4-17c3-17.1,6.9-30.9-2.5-47
	c-0.9,1.2-0.7,1.4-2,2c1.2,2.7,2.4,5.1,3,8c-4-0.6-6.3-1.9-9-5l5-1c-3.2-1.5-5.5-2.3-8-5c-0.7,1.2-0.7,1.5-1,3l-4-2
	c-6.4,2.5-10.3,1.6-16-2c4.2-3,6.2-1.7,10.9-1.9c2.9-0.1,5.1-1.3,8.1-1.1c-0.7-1.3-0.1-1-2-1c2.8-0.7,3.7-0.7,6,1c3,0.7,5.3,2.5,8,4
	c-2-4.3-5.1-6.2-9-8.7C118.5,8.9,108.4,8,95,8c-11.6,0-21.5-0.3-31.7,6.6C53,21.6,50.7,30.3,46.4,41c-2.3,5.7-6.1,10.9-7.6,17
	C37.6,62.8,38.2,68,38,73c-0.1,3.3-1.2,6.7-0.6,10c1.1,5.5,6.9,7.1,8.8,12c2,5.1-1.9,12.2,3,16c3.9,3.1,9,3.5,13.7,4.1
	C72.8,116.4,86.4,120.2,90,108z"/>
<path class="st1" d="M86,16c6,0.7,10.9,1,14-5C94.5,9.4,88.9,10.9,86,16 M70,14c5.4,2.3,11,0.5,16-2C81.1,10.1,74.8,12.5,70,14
	 M110,11c2.2,3.5,5,4.6,9,5C116.8,12.3,114.2,11.4,110,11 M97,17v2c5.6,2.9,9.5,3.3,15,0C107.3,12.9,103.2,13,97,17 M122,15
	c1.7,1.5,2.9,2.2,5,3C125.3,16.2,124.4,15.7,122,15 M67,18c3.4,1.4,7.3,1,11,1v-2C74.2,17,70.7,16.9,67,18 M80,20
	c3.9,0.3,7.2,1,11,0C87.6,17.2,82.7,15.8,80,20 M61,23c2.8,4.8,7.4,3.2,10-1C67.2,21,64.6,21.7,61,23 M74,25c4.9,1.8,10.1,3.3,13-2
	C82,21.4,77.8,21,74,25 M93,21c3.2,2.6,6.9,3.6,11,4C100.7,22.3,97.2,21.4,93,21z"/>
<path d="M126.7,22.3c-0.4,0.4,0.6,0.4,0.7,0.3C127.8,22.2,126.7,22.3,126.7,22.3z"/>
<path class="st1" d="M57,23l-2,4c2.8-0.8,3.6-1.5,5-4H57z"/>
<path d="M119,25l1,1c1.2-1.2,1.3-1.4,2-3C120.4,23.7,120.2,23.8,119,25z"/>
<path class="st1" d="M88,29c5.3,2.3,11.5,4.8,14-2C96.2,25.1,91.5,22.7,88,29 M60,34c4.5-0.9,7.2-1,8-6C63.3,28.1,59.5,28.5,60,34
	 M70,35c2,0.2,4,0.5,6,0.7c1.3,0.1,2.7,0.4,3.9,0.1c10.2-2-5.4-13.3-9.3-5.5C69.9,31.7,70,33.5,70,35 M104,28c-1.1,4.9,1.4,6.2,6,5
	C108.5,30.1,107.1,29.1,104,28 M52,33c3.8,0.9,5.6,0.1,5-4C54.8,30.2,53.6,31.1,52,33 M113,32c3.1,4.3,8.5,3.7,13,2v-2
	C121.1,30.2,117.8,30,113,32 M85,37c5.3,0.7,10.8,2.1,16,1C98.2,31.7,86.8,28.5,85,37 M127,31C128.2,38.3,134.3,32.2,127,31 M111,40
	c-0.5-1.9-1.1-3.3-2-5c-1.5,0.2-8.8,2-4.5,4.4C106.3,40.4,109,40,111,40 M55,41c5.4,4.4,10.8,3.4,11-4c-4.1,0-6.9,0.3-10,3l-1-1.5
	C48.5,34.9,50.6,45.7,55,41 M69,37c0.2,7.2,4.7,7.7,11,9c1.3-2.8,1.8-4.9,2-8C77.7,37.3,73.4,37.1,69,37 M113,37v3h12v-2L113,37
	 M135,38c0.7,2.2,1.1,2.7,3,4l-3,2c1.1,3.6,1.5,7.3,2,11c-1.8-4.2-2.5-8.5-3-13c-7.9,1.9-9.7,7.4-9,15c3.7,0,7.8,0.9,11-1
	c1.5,1,2.3,1.4,4,2c-1.5,1-1.2,1-3,1l-2,10c7.5-0.6,6.4-8.1,7.6-14c0.5-2.5,1.9-6,0.4-8.3c-1.1-1.7-3.2-2.1-4.9-2.7
	c1.8-0.6,3.1-0.8,5-1v-6L135,38 M127,38v2h6C130.9,38.4,129.6,38.2,127,38 M84,39c-1.3,7.2,1.6,7.7,8,9.3c1.9,0.5,4.6,1.8,6.4,0.6
	c6.8-4.4-4.5-8.7-7.4-9.3C88.7,39.2,86.4,39,84,39 M103,42l-1,6c4.2-0.2,6.5-1,8-5C107.6,42.3,105.5,42.1,103,42 M113,45l6-2
	C116.2,41.4,113.7,41.7,113,45 M49,44c-1,1.2-1.3,1.6-2,3C49.3,46.5,50.1,46.1,49,44 M58,46c2.1,2.7,3.8,3.9,7,5v-5
	C62.5,45.6,60.5,45.6,58,46 M69,45c-1,2.1-1.6,3.7-2,6c3.3-0.2,6-0.7,9-2C73.8,47,71.8,45.9,69,45 M112,57l-3,2v10
	c7.5,0,13.4-1.1,12-10l-9,2c2.7-1.6,8.6-1.8,10.5-4.3c1.9-2.5,1.3-5.3-1.5-5.7c1.5-1,1.2-1,3-1v-5c-4.3,0.1-8.7,0.6-11.8,4
	C109.9,51.7,107.5,56,112,57 M52,47c1.7,5.8,6.2,8.4,12,9C62.3,51,56.7,48.6,52,47z"/>
<path d="M139,48c1.2,1.2,1.4,1.3,3,2C140.9,49,140.4,48.7,139,48z"/>
<path class="st1" d="M40,63c4.9-1.4,6-8.5,7-13C41.6,52.7,40.3,57.3,40,63 M83,50v4c5.8,0.1,13.4,4.8,16-2C93.6,50.5,88.6,50,83,50
	 M66,53v4c5.2-0.2,13-0.4,15-6C75.7,51.9,71.5,53.2,66,53 M103,51c0.9,2.7,1.8,4.1,4,6c0.6-2.1,0.9-3.8,1-6H103z"/>
<path d="M112,55c2.4,0.2,3.8-0.8,6-2C115.5,52.7,114.2,53.7,112,55z"/>
<path class="st1" d="M47,57c3-0.5,4.1-0.9,4-4C49,54.2,48.2,55,47,57 M53,54c1.2,2.2,1.8,2.8,4,4C55.8,55.8,55.2,55.2,53,54 M99,56
	l2,5c-3.1,2.9-0.4,8.5,1,12c3.8-2.4,4.9-6.3,0-8c0.2-1.7,0.2-2.3,0-4c1.2,1.2,1.6,1.5,3,2C105.6,58.5,103.5,55.9,99,56 M69,62
	c-5.9-0.9-7.5,5.2-9,10c1.5,1,1.2,1,3,1c2.1-2.8,4.2-5,7-7L69,62c5,0.2,9.1-1.5,14-2C80.8,53.5,70.9,56.7,69,62 M85,56
	c1.2,5.8,5.3,8.4,11,9C96.4,58,91.2,56.3,85,56 M51,59.9c-8.1,1.1-8.3,15.7,0,14.5C58.6,73.2,58.7,58.8,51,59.9 M125,59
	c-0.5,2.3-1.9,5.4-1.2,7.8c1,3.2,5.3,3.6,7.6,1.6c2.3-2,3-5.6,3.6-8.4C131.6,59,128.5,59,125,59 M60,60v2h2v-2H60 M40,65v8h3v-8H40
	 M71,66l-1,13c4.3-3,6.2-9,5-14L71,66 M84,65.6c-13,3.6-5.2,21.4,7,17.8C103.8,79.6,96.2,62.2,84,65.6 M68,68
	c-2.7,3.7-7.2,11.2,1,10C68.8,74.6,69.3,71.2,68,68 M119,70c-1.9,0.3-4,0.4-5.9,1.1c-6.6,2.8,0.5,12,4.5,3.8
	C118.4,73.3,118.7,71.7,119,70 M123,79l7-1C128,70.1,123.1,71.2,123,79 M134,76l4-1c-6.2,4-7,9.3-10.4,15.4
	c-1.8,3.2-4.5,5.7-6.6,8.6c2.1-0.4,2-0.2,3-2c7.8-1.3,18.6-14,14-22c1.3-1.6,1.5-2,2-4C136,71.1,133.3,71.5,134,76 M101,82l7-2l-1-7
	C102.5,74.6,101.4,77.4,101,82 M40,74c-0.1,3.4-0.6,6.7,0,10c3.1-3.2,3.7-5.7,3-10H40 M55,74c-1.6,2.1-2.4,3.5-3,6
	C54.4,78.4,55.5,76.9,55,74 M120,74l-1,5c3.1-0.7,2.9-2,3-5H120 M58,75c-2.5,5.3-5.5,12.7,2,15c2.4-5.8,3.1-9.3,0-15H58 M45,78
	c1.1,3.3,2.6,3.7,6,4C49.4,79.5,47.8,78.8,45,78 M123,80c-0.8,4.1-1.6,8.1-3,12c6.6-1,8.6-7.1,10-13L123,80 M72,84
	c-1.8-1.3-2.8-1.7-5-2c-0.4,4.9-1.6,8.7-4,13c1.5,1,1.2,1,3,1c3.3-3.8,6.4-5.6,6-11c1.5,1,1.2,1,3,1c0.6-2.5,0.6-3.5,0-6
	C73.1,81.3,72.7,81.8,72,84 M115,91c-3.1,0.1-4.7,1-3,4c-2,2.5-2.5,3.9-2,7c3.7-2,5.4-3.8,6-8c4.9-0.6,4-9.9,4-14
	C115.4,82.4,112.6,86,115,91 M111,81l-1,4c2-1.2,2.7-2,4-4H111 M106,84c1.6-0.7,1.8-0.8,3-2C106.9,82.4,107,82.2,106,84 M46,83l-1,1
	c0.9,3.6,2.1,5.7,5,8C52.7,86.8,51.7,84.5,46,83 M43,84c-1,1.2-1.3,1.6-2,3l1,1h2C43.8,86.3,43.7,85.5,43,84 M64,84l-4,9
	c-2.1,0-2.3-0.1-4,1c6.5,1.5,8.7-4.5,10-10H64 M76,90c5.9,0.8,11.1,0.9,17,1c-4.2,2.5-7.8,4.4-10,9c2.5,0.6,3.5,0.6,6,0
	c3.2,4,6.9,1.8,9-2v4c7.1-0.2,10.9-3.6,9-11c-2.8,1.3-4.7,2.9-7,5l2-5l-4-1l-1,3l-2-4l3-1c-3.6-1.3-6-0.1-9,2l1-3
	C84,85.6,77,81.2,76,90 M102,84l-2,5c3.3,0.3,4.4-0.1,6-3L102,84 M108,87c-0.4,1.9-0.4,2.1,0,4C109.2,89.1,109.2,88.9,108,87z"/>
<path d="M93.7,90.3c-0.4,0.4,0.6,0.4,0.7,0.3C94.8,90.2,93.7,90.3,93.7,90.3z"/>
<path class="st1" d="M77,100c-6.7,0.7,2.4,7.2,1-1c0.9-0.5,2.1-0.7,2.8-1.6c4.4-5.5-6.7-8.6-5.3-0.7C75.7,97.8,76.5,99,77,100
	 M51,93c2,0.8,2.6,0.7,4-1L51,93z"/>
<path d="M115.3,92.7c-0.1,0.1-0.1,1.1,0.3,0.7C115.7,93.3,115.8,92.2,115.3,92.7z"/>
<path class="st1" d="M69,97c2.6-0.8,3.2-1.4,4-4C70.8,94.2,70.2,94.8,69,97z"/>
<path d="M95,93c-2.2,2.3-4.2,4.4-6,7C91.9,98.4,95.1,96.6,95,93z"/>
<path class="st1" d="M51,96c1.4,2.3,2.3,2.6,5,3v-3H51z"/>
<path d="M99.3,96.7c-0.1,0.1-0.1,1.1,0.3,0.7C99.7,97.3,99.8,96.2,99.3,96.7 M112,96l1,1L112,96z"/>
<path class="st1" d="M57,100c2.1-0.9,2.1-0.9,3-3C57.9,97.9,57.9,97.9,57,100 M61,98c1.3,2.1,1.5,2.1,4,2C63.5,98.9,62.8,98.6,61,98
	 M67,99v2h4v-2H67 M49,100v3h3v-3H49 M79,109c4-0.6,5.5-2.3,7-6C80.5,101.1,79.4,103.9,79,109 M54,102v3c1.6,0.2,1.6,0.1,3,1h8v-2
	c-2.3-0.5-3.6-0.5-6,0v-2H54 M68,103l-1,4c2-1.2,2.3-1.7,3-4H68 M72,105c0.7,2.2,1.1,2.7,3,4l1-4H72 M93,108l6,1
	C97.3,106.2,95.2,105.1,93,108 M48,108l1,1c1.2-1.2,1.3-1.4,2-3C49.4,106.7,49.2,106.8,48,108 M53,106c-0.6,1.8-0.8,3.1-1,5
	C54.1,109.3,54.3,108.3,53,106 M103,106v5c2.8-0.4,5.3-1.1,8-2v-2L103,106 M55,109l1,4h3l1-5L55,109 M61,109v4c2-1.2,2.3-1.7,3-4H61
	 M69,110l1,1L69,110 M72,110v3c1.2-1.2,1.3-1.4,2-3H72 M77,114c2.1-0.9,2.1-0.9,3-3C77.6,111.5,77.5,111.6,77,114 M102,112
	c-0.1,2.1-0.5,3.9-1,6l8-3c-2.2,1.6-3.7,2.7-5,5h8c-1.2-0.7-1.5-0.7-3-1c2-1.3,2.8-2,4-4h-4l3-2C108.9,110.8,105.7,111.8,102,112
	 M114,120v2h2v-2H114 M100,133c3.8,0.5,6.5-0.6,10-2c-2.2-0.7-3.7-0.4-6,0c2.3-1.5,3.7-2.6,5-5C103.3,126.4,101.5,127.5,100,133z"/>
<path d="M102,131v2h2v-2H102z"/>
<path class="st1" d="M106,134c1,1.8,0.9,1.6,3,2C107.8,134.8,107.6,134.7,106,134 M99,138c2.3,1.6,4.2,1.9,7,2
	C103.7,137.7,102.2,137.6,99,138 M106.7,146.3c-0.4,0.4,0.6,0.4,0.7,0.3C107.8,146.2,106.7,146.3,106.7,146.3 M99,148
	c2.4,2.2,4,2.8,6,0H99z"/>
<path d="M86,149c0.5,1.6,0.4,1.5,2,2C87.5,149.4,87.6,149.5,86,149z"/>
<path class="st1" d="M95,151c1.8,1.4,2.7,1.7,5,2v-2H95 M155,151c-1.4,1.7-2.2,3-3,5C154.2,154.6,155.2,153.6,155,151 M101.3,152.7
	c-0.1,0.1-0.1,1.1,0.3,0.7C101.7,153.3,101.8,152.2,101.3,152.7 M48,155l1,1L48,155 M97,155v3l4-1C99.5,155.9,98.8,155.6,97,155
	 M103,157l-1,4C103.7,159.6,103.8,159,103,157 M47,159c-0.2,3.2-0.8,4.7-3,7c2.1,3.5,4,5.2,8,6c-0.8-1.3-0.7-1.2-2-2
	C50.5,165.6,50.2,162.1,47,159 M68,160c3.5,4.5,6.1,8.1,12,9C76.3,165,73.6,160.9,68,160z"/>
<path d="M48.3,161.7c-0.1,0.1-0.1,1.1,0.3,0.7C48.7,162.3,48.8,161.2,48.3,161.7z"/>
<path class="st1" d="M151,163c-1.6,3-2.5,5.7-3,9C150.5,169.6,151.8,166.5,151,163 M128,164l1,1L128,164z"/>
<path d="M48.3,165.7c-0.1,0.1-0.1,1.1,0.3,0.7C48.7,166.3,48.8,165.2,48.3,165.7z"/>
<path class="st1" d="M54,166l1,1L54,166 M154,167c0.2,3.1,4.9,9.6,6,4c1.2,1,1.6,1.3,3,2C163.2,167,159.2,166.3,154,167 M175,166
	l1,1L175,166 M146,167c-0.4,1.9-0.4,2.1,0,4C146.7,169.2,146.7,168.8,146,167 M54,168v4C54.7,170.2,54.7,169.8,54,168 M56,168
	c-0.2,2.6-3,5.7-2.6,7.9c0.6,3.5,3.9,2.8,4.6,0.1l2,5c0.8-2.3,0.8-4.5,1-7c-1.2,0.6-1,0.5-2,2C58.3,173.1,57.8,170.4,56,168 M81,168
	c2.9,4.4,14.7,6.9,18,2C92.9,169.9,87.1,168.3,81,168 M165,168v2h2v-2H165 M42.7,169.3c-0.4,0.4,0.6,0.4,0.7,0.3
	C43.8,169.2,42.7,169.3,42.7,169.3 M110,173l-3-1c-1.3,1.6-2.4,2.7-4,4c5.8,2.1,15-1.8,18-7C116.5,169,112.5,168.9,110,173 M82,172
	c1.3,1.6,1.9,1.7,4,2C84.5,172.9,83.8,172.6,82,172 M167,172l1,1L167,172 M51.3,173.7c-0.1,0.1-0.1,1.1,0.3,0.7
	C51.7,174.3,51.8,173.2,51.3,173.7 M80,174c0.7,1.6,0.8,1.8,2,3C81.3,175.4,81.2,175.2,80,174 M141,174c-0.8,2.7-0.8,5.2-1,8
	c3-2,2.6-4.6,3-8H141 M169,174l-1,5c1.8-0.8,1.5-1,3,0C171.5,176.5,171,175.5,169,174 M39,175c0.3,2.1,0.4,2.7,2,4
	C40.4,177.4,39.9,176.4,39,175 M86,176c3.9,3.1,9.2,4.4,14,3l-1-3C94.4,176.8,90.4,175.2,86,176 M44,178c1.2,4.3,5.4,8.6,9,4
	c-3.9,0.1-5.9,0-7-4H44 M42,179v3C42.7,180.4,42.7,180.6,42,179 M63,179l-3,5l5-1C64.4,181.4,63.9,180.4,63,179 M84,179
	c1.9,1.4,3.7,2.2,6,3C88,179.9,86.8,179.4,84,179 M58,181v3C58.7,182.4,58.7,182.6,58,181 M134,181c0.5,1.6,0.4,1.5,2,2
	C135.5,181.4,135.6,181.5,134,181z"/>
<path class="st2" d="M179,181l1,1L179,181z"/>
<path class="st1" d="M102.3,182.7c-0.1,0.1-0.1,1.1,0.3,0.7C102.7,183.3,102.8,182.2,102.3,182.7 M95,183c1.8,1.2,1.8,1.2,4,1
	C97.5,183.3,96.7,183.2,95,183z"/>
<path d="M108,183l1,1L108,183z"/>
<path class="st1" d="M137,184c-1.8,3.6-4.3,5.8-5,10c1-1.1,1.3-1.6,2-3c5,0.7,6.7-2.6,8-7c-1.6,0.5-1.5,0.4-2,2
	C138.8,184.8,138.4,184.5,137,184 M148,184l-1,2C148.3,185,148.4,185.3,148,184z"/>
<path class="st3" d="M179,184l1,1L179,184z"/>
<path class="st1" d="M66,185c0.3,2.7,0.2,3.6,3,4C68.2,187,67.7,186.2,66,185 M134,185l1,1L134,185 M149,188c-3.7-0.1-4.8,1.5-6,5
	c6.1,0.5,17.7,2.9,19-5h2v4c1.3-0.6,1-0.1,1-2c2.5,3.8,6.2,3.1,8-1c-2.1-0.9-2.1-0.9-3-3c-0.2,0.1-4.2,1.9-4,2l-1-2l-2,1l-1-2
	c-5.4-0.8-8.9-0.1-12,2l-1-1V188z"/>
<path class="st4" d="M179,185l1,1L179,185z"/>
<path class="st1" d="M58,186l-1,4h3C59.5,188,59.3,187.5,58,186 M100,187l1,1L100,187 M102,188v3C102.7,189.4,102.7,189.6,102,188
	 M142,188l-1,3C142.3,189.6,142.4,189.8,142,188 M61,192c2.4-0.5,2.5-0.6,3-3C62.1,189.9,62,190.1,61,192 M72,189v4h2v-4H72
	 M121,189c-0.5,3-0.2,3.9,2,6c0-2,0.3-3.2,1-5C122.5,189,122.8,189,121,189z"/>
<path d="M134.7,189.3c-0.4,0.4,0.6,0.4,0.7,0.3C135.8,189.2,134.7,189.3,134.7,189.3 M150,190l1,1L150,190z"/>
<path class="st1" d="M59.3,191.7c-0.1,0.1-0.1,1.1,0.3,0.7C59.7,192.3,59.8,191.2,59.3,191.7 M115,191v5h2v-5H115 M113,192
	c0,1.8-0.1,1.6,1,3C113.7,193.5,113.7,193.2,113,192 M46,193v3h2v-3H46 M66,193c0.9,1.9,1.4,2.6,3,4C68.2,194.9,67.9,194.2,66,193
	 M107,193l2,4C109.2,194.9,108.6,194.5,107,193 M56,194c1.3,1.6,1.9,1.7,4,2C58.5,194.7,58,194.5,56,194 M63.7,194.3
	c-0.4,0.4,0.6,0.4,0.7,0.3C64.8,194.2,63.7,194.3,63.7,194.3 M94,194v5C95.5,196.8,95.5,196.2,94,194 M97.3,194.7
	c-0.1,0.1-0.1,1.1,0.3,0.7C97.7,195.3,97.8,194.2,97.3,194.7 M32.7,195.3c-0.4,0.4,0.6,0.4,0.7,0.3
	C33.8,195.2,32.7,195.3,32.7,195.3 M113.3,196.7c-0.1,0.1-0.1,1.1,0.3,0.7C113.7,197.3,113.8,196.2,113.3,196.7 M99,197
	c0.1,2.2,0.4,3.9,1,6C100.7,200.6,100.3,199.2,99,197 M124.3,198.7c-0.1,0.1-0.1,1.1,0.3,0.7C124.7,199.3,124.8,198.2,124.3,198.7
	 M131,200c-1.2,2.2-1.7,3.6-2,6C130.8,203.9,131.6,202.7,131,200 M150,201c-3,3.2-4.9,5.6-6,10c7.2,1.6,27.4,0.4,27-10
	C164.3,203.8,157,202.3,150,201 M140,203c-1.6,3.3-2.7,5.4-2,9c2.7-2.6,3.1-5.5,4-9H140 M94,204l1,1L94,204 M54,209
	c-1.2-1.2-1.3-1.4-2-3l-7,1c1,2.2,0.7,2,3,2c0,1.8,0,1.5,1,3l5-2c2.3,2.7,5.7,2.8,9,2c-0.6-2.4-0.9-4.6-1-7
	C58.2,205,54.8,204.8,54,209 M74.7,205.3c-0.4,0.4,0.6,0.4,0.7,0.3C75.8,205.2,74.7,205.3,74.7,205.3 M37.7,206.3
	c-0.4,0.4,0.6,0.4,0.7,0.3C38.8,206.2,37.7,206.3,37.7,206.3 M64,206v7c2.2-1.9,2-4.1,2-7H64 M67,206v2c1.6-0.5,1.5-0.4,2-2H67
	 M71,206c-0.5,1.6-0.4,1.5-2,2c0.8,2.1,1.5,3.3,3,5c1-2.6,1.3-4.3,1-7H71 M135,206l1,1L135,206 M93,208l-2,12
	C93.6,216.7,94.6,212,93,208 M130,209c1.7,1.1,1.9,1,4,1C132.3,208.9,132.1,209,130,209 M75,210l1,1L75,210 M123,212l1,1L123,212
	 M138,213l1,1L138,213 M157.7,213.3c-0.4,0.4,0.6,0.4,0.7,0.3C158.8,213.2,157.7,213.3,157.7,213.3 M99.3,217.7
	c-0.1,0.1-0.1,1.1,0.3,0.7C99.7,218.3,99.8,217.2,99.3,217.7 M103,219l1,1L103,219 M94,220l-1,3C94.3,221.6,94.4,221.8,94,220
	 M168,224c-4.5-2.9-8.4,0.2-13,1.8c-3.8,1.2-7.4,1.3-11,3.2c-2.4-2-4.7,0.4-7,2c0.1-3.4-1.5-2.2-3,0v-3c-2.7,1.6-3.4,2.9-4,6
	c2.8-0.1,3.6,1.6,4-2c0.6,2.1,0.9,3.8,1,6c1.2-1.2,1.3-1.4,2-3c1.5,1.6,2.1,2.1,4,3l-4,1c1.8,1.8,4.4,0.9,7,0l1,1v-2
	c3.4,2,6.3,0.9,10,0c7-1.8,11.6-2.4,14-10c1.2,1,1.6,1.3,3,2l1-10C170.1,220.7,168.8,221.1,168,224 M99,221l1,1L99,221 M52,223l1,1
	L52,223z"/>
<path d="M164.7,223.3c-0.4,0.4,0.6,0.4,0.7,0.3C165.8,223.2,164.7,223.3,164.7,223.3 M169,224c-1,2.1-1.6,3.7-2,6
	C168.6,228,169.7,226.5,169,224z"/>
<path class="st1" d="M96,225l1,1L96,225 M117.3,227.7c-0.1,0.1-0.1,1.1,0.3,0.7C117.7,228.3,117.8,227.2,117.3,227.7 M128,227
	c-1.7,2.4-2.6,4.1-3,7C127.5,231.9,129,230.3,128,227z"/>
<path d="M164,227l1,1L164,227 M140,230l1,1L140,230z"/>
<path class="st1" d="M48,233l1,5l-3-5c-0.7,2.4-0.4,4.5,0,7c1.3-0.6,1-0.1,1-2l3,5c1.6-0.7,1.8-0.8,3-2c5.5,2.9,13.8,3.5,15-4
	c1.5,1,1.2,1,3,1l-2-4c1.7,0.9,3.1,1.5,5,2v-5c-0.7,1.2-0.7,1.5-1,3c-1-1.5-1-1.2-1-3C64.1,232.5,56,233,48,233 M82,231v5
	C83.1,233.8,83.2,233.1,82,231z"/>
<path d="M137,232c0.5,1.6,0.4,1.5,2,2v-2H137z"/>
<path class="st1" d="M41,236c1.5-1.1,1.9-1.5,3-3C41.6,233.5,41.5,233.6,41,236 M103,233c-2.1,6.2-3.1,13.6-2,20
	C104,248,105.3,238.4,103,233z"/>
<path d="M63,235l1,1L63,235z"/>
<path class="st1" d="M99,237v4C99.7,239.2,99.7,238.8,99,237 M43,238l1,1L43,238z"/>
<path d="M49,238l1,1L49,238z"/>
<path class="st1" d="M73,238v3h2v-3H73 M135,239l1,1L135,239 M99,243l-1,4C99.3,245.3,99.6,245,99,243 M171,245c-2.1,0.9-2.7,1-5,1
	c-1.3,1.9-1.3,1.1,0,3c-1.8,0-1.5,0-3,1c-2-2.8-5.9-1.9-9-1c-6,1.7-12.7,3.7-19,3c-0.4,2.6-1.8,7.1,0.1,9.4c1.6,1.9,4.9,0.8,6.9,0.8
	c6.7,0,12.6,1.4,19-1.2c-0.6-1.3-0.1-1-2-1l4-1c1.3-3.9,4-7,5-11l1,4C171.3,249.7,172.2,248.1,171,245 M122,248l-1,6
	C122.7,251.8,123,250.6,122,248 M114,251l1,4c0.7-1.5,0.8-2.3,1-4H114z"/>
<path d="M162,251l-1,4C162.3,253.3,162.6,253,162,251z"/>
<path class="st1" d="M125.7,252.3c-0.4,0.4,0.6,0.4,0.7,0.3C126.8,252.2,125.7,252.3,125.7,252.3 M98,253l1,23c2.6-1.3,3.7-2.4,5-5
	c-3.8,0-1-3.8,0-6c-2.5-1.6-2.8-3-3-6c0.6,1.8,0.8,3.1,1,5c2.3-3.1,2.1-6.4,1-10l-3,2C99.3,254.4,99.2,254.2,98,253 M130,254
	c-0.7,2.2-0.4,1.8-2,1c0,4,0.1,6.4,4,8C132,259.6,131.9,256.9,130,254 M126,255c-0.6,2.7-0.7,4.3,0,7
	C127.1,259.5,127.1,257.5,126,255 M96,256c-0.2,2.1-0.2,3.9,0,6C97,259.7,97,258.3,96,256z"/>
<path d="M161,256l1,1L161,256z"/>
<path class="st1" d="M75,257c-1.4,0.9-1.4,0.8-3,1l-3,3c1.5,0.5,1.4,0.4,3,0c0.6,2.7,1.3,2.8,4,3C76.4,261.1,76.5,259.4,75,257
	 M44,258c1.5,3,2.6,5.6,3,9c1.6-0.8,2.6-1.9,4-3c0,4.5,9.5,3.3,13,2.6c1.6-0.3,3.9-0.8,4.2-2.7c0.5-2.7-2.5-2.8-4.2-2.9
	c-3.7-0.4-13.1-3.7-15,0C47.3,259.4,46.2,258.8,44,258z"/>
<path d="M138.3,258.7c-0.1,0.1-0.1,1.1,0.3,0.7C138.7,259.3,138.8,258.2,138.3,258.7z"/>
<path class="st1" d="M78,259v3h2v-3H78z"/>
<path d="M48,262l1,1L48,262 M73,262l1,1L73,262z"/>
<path class="st1" d="M174,262l-1,4C174.3,264.3,174.6,264,174,262 M70,264l1,1L70,264 M94,264v11C95.4,271.6,95.4,267.4,94,264
	 M144,265l-1,2h2C145,265.1,145.3,265.6,144,265 M150,265c1.5,1.8,2.6,1.8,5,2C153.4,266.1,151.8,265.6,150,265 M160,265l1,1
	L160,265 M96.3,266.7c-0.1,0.1-0.1,1.1,0.3,0.7C96.7,267.3,96.8,266.2,96.3,266.7 M164,268l-4,10c-3.1-2.7-5.3-0.8-9,0.1
	c-4.4,1.2-9.5,1.6-14,1.9c-3.1,0.2-5.3-0.4-6,2.9l-1-4c-2.2,2.5-2.7,4.7-3,8c1.8-1,1.6-0.9,2-3l1,4c1.2-0.6,1-0.5,2-2
	c5.3,4,13.7,1.3,20,2c0-2.7,3.6-3.2,6-4.5c5-2.7,7.7-4.7,6-10.5c1.8-1.5,1.8-2.6,2-5H164 M38,270v2h2v-2H38 M96,270l1,1L96,270
	 M88,272c0.1,3.1,0.2,5.4,2,8C90,276.9,89.7,274.6,88,272 M82.3,274.7c-0.1,0.1-0.1,1.1,0.3,0.7C82.7,275.3,82.8,274.2,82.3,274.7
	 M119,275v6c2-1.7,1.9-3.4,2-6H119 M139,275l1,1L139,275 M79,276c-2.1,1.6-4.3,1.8-7,2v8c-0.8-2.7-1-5.1-1-8c-2.6,0-5.1,0-7.7,0.2
	c-5.3,0.4-12,4.9-4.9,9.5c4.2,2.8,17.6,2,21-2.2C81.3,283,80.1,278.6,79,276 M83,277v5C83.8,280,83.8,279,83,277z"/>
<path d="M77.3,278.7c-0.1,0.1-0.1,1.1,0.3,0.7C77.7,279.3,77.8,278.2,77.3,278.7 M161,278l1,1L161,278z"/>
<path class="st1" d="M50,279c-0.7,3.9,0.2,5.8,4,7C53.7,282.4,53.1,280.9,50,279 M37,280c0.7,1.6,0.8,1.8,2,3v-3H37 M43,280l1,4
	C44.6,282,44.3,281.7,43,280z"/>
<path d="M74,280l1,7C76,284.3,75.5,282.5,74,280z"/>
<path class="st1" d="M125,280l-1,5C125.5,283.1,125.8,282.3,125,280 M91,282l1,1L91,282 M83,283l1,1L83,283z"/>
<path d="M132,283l1,1L132,283z"/>
<path class="st1" d="M87,284v2h2C88.5,284.4,88.6,284.5,87,284z"/>
<path d="M78,285l1,1L78,285z"/>
<path class="st1" d="M44.3,286.7c-0.1,0.1-0.1,1.1,0.3,0.7C44.7,287.3,44.8,286.2,44.3,286.7 M91,286v4
	C91.7,288.2,91.7,287.8,91,286 M100,286v4C100.7,288.2,100.7,287.8,100,286 M102,286c0.4,2.1,0.2,2,2,3
	C103.3,287.4,103.2,287.2,102,286 M163,289l1,1L163,289 M102,290v5C103.6,292.9,104,291.8,102,290 M100,292l1,1L100,292 M96,295
	c-0.2,1.7-0.2,2.3,0,4C96.7,297.2,96.7,296.8,96,295 M120,297c-1,1.5-1,1.2-1,3C120.8,299,121,298.8,120,297 M60,298l1,1L60,298
	 M87.3,299.7c-0.1,0.1-0.1,1.1,0.3,0.7C87.7,300.3,87.8,299.2,87.3,299.7 M81,300l1,6c-1-1.5-1.4-2.3-2-4c-0.7,1.5-0.8,2.3-1,4l-2-4
	c-4.3,0.4-8.7,0-13,0v4l-2-1v4l3-2v5c1.4-1.8,1.7-2.7,2-5c1,1.5,1.4,2.3,2,4c5.7,0,11.3-0.3,17-1c-0.3-3.7,1.1-7.6-2-10v4l-1-4H81z"
	/>
<path d="M53,302l1,4C54.4,304.1,54.1,303.6,53,302 M75.3,304.7c-0.1,0.1-0.1,1.1,0.3,0.7C75.7,305.3,75.8,304.2,75.3,304.7z"/>
<path class="st1" d="M96,304v4c2.7-0.4,3.6-0.7,5-3L96,304 M112,304l-1,2h2C113,304.1,113.3,304.6,112,304 M115.3,304.7
	c-0.1,0.1-0.1,1.1,0.3,0.7C115.7,305.3,115.8,304.2,115.3,304.7z"/>
<path d="M132,304l1,1L132,304 M141,307c2-0.8,2.8-1.3,4-3C143.1,304.9,142.4,305.4,141,307z"/>
<path class="st1" d="M111,314c0,1.8-0.1,1.6,1,3C111.7,315.5,111.7,315.2,111,314 M103,315c0.9,2.5,1.5,3,4,4c-0.9,1.9-1,1.9-1,4
	c-2.9,1.2-4,2.1-5,5c3-0.2,6-0.2,9,0c1.6-2.3,2.9-4.4,4-7c-2-0.5-3-0.5-5,0v-4L103,315 M116,317v5h4C119.5,319,118.8,318.1,116,317z
	"/>
<path d="M103,325l1,1L103,325z"/>
<path class="st1" d="M103,333c2.4,1.7,3.3,1.3,5-1C106.1,332.2,104.8,332.4,103,333 M119,333v2h2C120.5,333.4,120.6,333.5,119,333
	 M113,346c0.9-1.9,1.4-2.5,3-4c-2.7-1.9-0.1-4.6,0-8C110.8,334.9,107.3,343.7,113,346 M122,334v3l2-1
	C123.5,334.4,123.6,334.5,122,334 M99,335l1,1L99,335 M107,337l1,1L107,337 M104,338l1,1L104,338 M107,340c-0.7,2.9-1.2,4.3,2,5v-5
	H107 M103,346l-2,4C102.9,348.7,103.4,348.2,103,346 M105,357c1.8,0.8,3,0.9,5,1C108.2,357.2,107,357.1,105,357 M101,365
	c1.5,4.1,3.4,7.7,4,12h5c0.6-4.1,2.1-7.4,4-11C109.7,364.7,105.4,365,101,365 M88,366c0,10-1.1,20.1-2,30c7.1-8.6,6.8-16.6,6-27
	c1.2,1.2,1.6,1.5,3,2C95.5,366.1,92.2,366,88,366 M120,366c-0.6,1.8-0.8,3.1-1,5h5c-3.7,7.7-2.7,20,5,25c-2.5-9-2-19.7-2-29L120,366
	 M66,385l1,1L66,385 M78,386c-1.5,1-1.2,1-3,1c0.8,2.7,1.6,3.5,4,5C79,389.7,78.9,388.1,78,386 M135,388v6c2.4-1.5,3.7-2.5,5-5
	L135,388 M106,392l1,4c0.7-1.5,0.8-2.3,1-4H106 M69,395v2h3v-2H69 M92,396l-2,5c2.8-1.1,3.5-2,4-5H92 M120,397c0.8,2.8,1.5,3.6,4,5
	c-0.5-1.9-1.1-3.3-2-5H120 M142,397c1.2,1.7,2,2.2,4,3C144.8,398,144.3,397.7,142,397 M75,399v3C75.7,400.4,75.7,400.6,75,399
	 M98,399c0.2,3.6,0.8,6.7,2,10c2.4-3.3,0.5-6.2,0-10H98 M115,399c-1.6,3.5-2.7,6.2-2,10C115.6,406,116.5,402.7,115,399 M138,401v2h2
	v-2H138 M85,410c0.1,7.3,2.6,14.3,11,10C93,415.8,89.8,412,85,410 M129,411c-2.7,1.2-12.1,6.3-9.8,10.4c1.4,2.4,5.7,1.1,7.3-0.3
	C129.3,418.7,129,414.3,129,411 M105,415l-2,6c3,0.9,5,0.9,8,0C109.8,417.5,108.5,416,105,415 M124,435l1,1L124,435 M127,436l1,1
	L127,436 M21,437l1,1L21,437 M140,439l1,1L140,439 M71,440l1,1L71,440 M191,442l1,1L191,442z"/>
</svg>
