<svg xmlns="http://www.w3.org/2000/svg" width="517" height="517"><path d="M0 0v517h517V0H0z" fill="#fff"/><path d="M201 79c0 17.744 3.551 34.989 8.427 52 2.125 7.412 6.227 14.427 7.573 22-4.527-.194-10.874-.096-15-2.009-6.768-3.138-11.492-10.266-18.09-13.133-2.487-1.081-5.29-.742-7.91-1.184-7.116-1.199-15.622-3.491-20.816-8.628-5.903-5.841-11.242-13.154-15.851-20.047-2.775-4.15-5.012-9.358-9.333-11.999 3.951 12.706 15.747 22.355 19 35-9.259-7.323-19.242-11.782-30-16.362-3.061-1.303-5.769-3.812-9-4.615-2.571-.639-5.369-.056-8-.491-8.37-1.383-16.575-3.491-25-4.662-9.919-1.379-22.247-3.753-32-.87 3.446 1.446 7.305.899 11 1.428 9.965 1.427 20.257 2.742 30 5.307 14.315 3.768 29.103 8.064 42 15.496 5.679 3.273 9.928 8.517 15.424 11.745 4.032 2.368 9.315 1.111 13.575 2.766 5.854 2.273 12.332 10.192 16.001 15.258-6.395 1.661-11.618-.295-18-.946-8.433-.86-18.569-1.251-27-.779-5.207.291-10.819 2.706-16 3.726-16.562 3.259-34.209 7.581-49 15.999 4.296 1.267 8.84-1.632 13-2.856 9.191-2.703 18.569-5.016 28-6.72 16.235-2.933 32.597-4.47 49-2.139 4.933.702 9.236 3.319 14 4.115 5.153.862 9.772-3.798 15-2.499 3.338.83 6.108 3.602 9 5.339 3.131 1.88 6.894 2.883 9.7 5.259 4.745 4.02 8.264 9.902 12.47 14.497 3.396 3.711 7.607 6.442 9.83 11.004-5.199 1.188-10.599 2.919-16 2.624-4.095-.224-7.949-2.067-12-2.245-2.683-.118-5.298.64-8 .436-21.987-1.661-45.742-11.684-65-21.815 3.34 6.193 10.962 8.736 17 11.753 16.735 8.362 34.162 12.232 52 17.247-2.345 4.031-5.361 8.615-9.093 11.491-7.194 5.544-17.762 6.961-25.723 11.158-6.001 3.163-8.963 10.572-15.184 13.917-4.315 2.321-10.22 2.135-15 2.52-9.791.787-20.313 2.22-30-.086 2.492 3.081 6.266 2.766 10 3.166 9.332 1 18.612.834 28 .834-2.395 3.928-6.931 4.531-11 6.287-6.013 2.595-11.686 6.049-17 9.868C86.333 281.292 64.55 300.7 54 323c5.787-3.118 9.955-10.088 14.285-15 6.03-6.84 12.874-12.845 19.715-18.844 10.16-8.908 21.607-17.709 34-23.291 5.133-2.312 10.878-2.372 15.816-4.468 4.633-1.966 6.906-8.032 11.185-10.797 5.135-3.32 13.124-3.08 18.999-4.6l1 1c-3.516 8.961-12.423 14.854-17.537 23-9.318 14.844-16.637 30.316-21.968 47-3.209 10.043-6.466 20.381-6.495 31 2.542-4.161 3.162-9.373 4.67-14 2.654-8.144 5.706-16.174 9.191-24 6.606-14.833 14.344-29.854 25.313-41.996 3.599-3.985 8.431-6.214 12.098-9.887 4.271-4.278 2.226-11.231 7.833-15.123 5.149-3.574 14.747-8.732 20.895-9.769 9.445-1.593 18.909-.364 28-4.225 2.213 9.631-3.04 18.645-7.248 27-3.671 7.29-8.817 12.65-13.51 19.17-6.388 8.875-12.086 17.566-19.487 25.737-4.737 5.229-10.665 9.334-14.755 15.093 6.279-2.429 11.209-7.371 16.17-11.805 8.716-7.79 16.336-16.074 23.63-25.195 4.296-5.372 8.136-13.682 14.2-17 .929 4.818 4.227 8.352 5.501 13 1.213 4.426.339 9.458.538 14 .338 7.701 1.943 14.229.961 22 10.158 8.027 3.097 16.058-3.105 23.961-12.344 15.73-27.38 29.805-43.895 41.039 5.276 1.443 10.962-3.912 15-6.884 12.396-9.125 22.466-20.139 34-30.116-2.18 9.395-7.891 17.695-10 27 8.389-7.75 14.396-24.01 17-35h2c.688 11.613.71 22.576 3.63 34 1.741 6.814 6.899 16.035 6.277 23-.31 3.484-2.304 6.793-3.563 10-2.946 7.505-6.154 14.735-9.642 22-1.938 4.038-4.584 7.655-5.702 12 3.506-2.751 5.431-6.281 7.833-10 5.308-8.217 10.896-17.415 13.167-27h2c5.066 12.349 11.162 28.636 22 37-4.636-14.645-17.692-28.279-19.286-44-.714-7.04 4.776-17.048 6.555-24 2.794-10.92 2.731-21.821 2.731-33 3.888 2.353 5.004 6.872 6.576 11 2.816 7.396 6.207 18.935 13.424 23-4.1-8.023-8.483-17.074-10-26 14.285 14.365 29.394 30.198 48 39-3.448-6.791-12.271-11.476-18-16.425-8.935-7.719-16.759-16.492-24.25-25.575-3.177-3.853-8.769-8.9-9.694-14-.853-4.704 3.388-7.964 4.79-12 1.841-5.302.967-13.26 1.73-19 1.345-10.12-1.581-23.099 9.424-29 4.992 15.665 21.454 29.921 33 40.961 5.201 4.972 11.082 10.745 18 13.039-4.147-5.634-10.125-9.863-14.91-15-7.616-8.175-13.261-17.024-19.723-26-9.861-13.695-21.318-27.154-21.367-45 6.063.483 11.944 2.244 18 2.83 3.94.382 8.15-.386 12 .669 3.592.985 6.656 3.441 10 5.012 3.148 1.478 6.97 2.247 9.786 4.332 5.156 3.816 3.616 11.039 7.778 15.206 5.315 5.321 11.354 8.781 16.1 14.955C382.016 295.572 389.986 321.588 399 348c2.607-6.391-1.457-16.61-3.291-23-5.715-19.911-13.979-39.954-25.911-57-4.976-7.108-14.408-13.274-15.798-22 6.106 1.26 14.695 1.463 19.961 4.893 4.265 2.778 6.469 8.51 11.209 10.507 5.376 2.266 11.373 2.244 16.83 4.97 14.351 7.171 27.277 17.602 38.961 28.457C450.457 303.65 460.089 312.939 467 324c1.931-7.276-9.43-17.839-13.754-23-11.843-14.136-25.86-26.822-41.246-36.996-7.166-4.739-18.34-6.857-24-13.004 13.215 0 25.89-.343 39-2-4.721-1.981-10.919-.998-16-1-8.388-.003-17.795-.335-26-2.189-8.318-1.88-11.59-10.597-18.174-14.877-7.655-4.976-18.007-5.972-25.642-11.02-4.124-2.726-7.239-8.006-10.184-11.914 17.801-3.672 34.465-9.105 51-16.587 6.239-2.823 15.612-6.236 19-12.413-20.189 9.852-42.461 19.024-65 21.685-3.049.36-5.976-.614-9-.386-3.458.261-6.54 2.155-10 2.501-6.109.611-12.41-1.647-18-3.8 7.982-7.352 14.186-16.569 22.171-23.725 3.116-2.794 7.296-4.155 10.829-6.341 2.588-1.601 5.097-3.906 8-4.909 5.496-1.9 10.486 3.212 16 2.492 3.109-.406 6.008-2.187 9-3.077 5.037-1.499 10.755-2.171 16-2.401 17.624-.771 36.968 2.213 54 6.717 8.07 2.134 15.865 5.362 24 7.244-4.268-6.025-16.204-8.229-23-10.494-9.873-3.291-19.866-5.278-30-7.52-3.968-.878-7.896-2.751-12-2.803-8.099-.103-16.92-.097-25 .66-6.721.63-12.289 2.982-19 1.157 3.578-5.08 9.21-12.454 15.039-14.995 4.5-1.961 10.356-.621 14.537-3.033 5.602-3.232 9.553-8.875 15.424-12.072 23.783-12.949 54.904-20.825 82-20.9v-2c-34.866 0-75.484 4.548-103 28 1.002-5.493 4.954-10.372 8.003-15 4.222-6.407 8.042-12.902 10.997-20-4.544 2.56-6.661 7.76-9.519 12-5.078 7.533-10.907 15.641-17.651 21.772-7.27 6.61-18.221 4.353-26.545 7.831-6.506 2.72-11.784 9.663-18.285 12.978-4.441 2.265-11.057 2.029-16 2.419 10.202-22.818 16.931-48.935 17-74h-2c-.156 18.86-7.068 40.967-15.04 57.961-1.366 2.91-3.689 5.188-5.041 8.078-1.692 3.618-2.333 7.41-4.347 10.961-2.439 4.301-5.078 8.38-8.573 11.906-2.128 2.147-5.438 3.962-7.011 6.564-1.896 3.135-1.525 7.999-2.477 11.53-1.558 5.776-4.492 11.079-5.511 17-3.034-1.725-4.005-3.678-5-7-7.222 0-10.945-.201-14 7h-2c-1.645-5.755-4.172-11.151-5.625-17-.833-3.355-.671-7.632-2.117-10.74-1.337-2.877-4.778-4.397-6.959-6.564-3.12-3.102-5.56-6.977-7.874-10.696-2.656-4.269-3.325-8.646-5.433-13-1.547-3.194-4.114-5.77-5.665-9-4.919-10.246-7.966-22.01-10.7-33-1.927-7.743-4.211-15.968-3.627-24h-2z"/><path d="M173 146c3.667 4.978 7.751 7.801 14 8-2.768-4.911-8.623-7.071-14-8m163 7c6.095 1.605 10.424-2.328 14-7-5.455.818-10.371 2.768-14 7m-141 8c2.942 5.089 8.56 3.595 12.485 7.317 3.185 3.02 5.307 7.259 8.03 10.683 6.213 7.813 15.026 16.414 24.485 20-1.508-10.213-5.036-19.918-11.335-27.999-2.023-2.596-3.788-5.66-6.849-7.147C213.716 159.92 203.699 161 195 161m88 38c9.306-4.087 17.894-12.141 24.192-20 2.806-3.501 5.012-8.498 8.417-11.397 3.965-3.377 9.351-1.579 12.391-6.603-8.617 0-20.091-1.294-27.907 3.164-3.075 1.755-4.923 5.081-6.988 7.836-5.822 7.766-9.253 17.227-10.105 27m0 15c1.579 5.248 6.087 6.105 11 7.37 6.575 1.694 13.209 3.078 20 3.54 3.179.217 6.819-.633 9.91.114 4.691 1.134 8.371 6.187 13.09 7.976-3.981-16.941-21.405-26.687-38-24.08-5.415.85-10.607 3.832-16 5.08m-97 19c4.558-1.973 8.353-6.773 13.015-7.976 2.835-.732 6.076.072 8.985-.114 7.017-.45 14.259-1.63 21-3.631 4.658-1.382 9.43-2.292 11-7.279-5.444-1.138-10.556-3.821-16-4.74-4.041-.682-7.98.146-12 .366-3.196.175-6.019-.541-8.996 1.041-4.661 2.477-8.174 7.248-11.339 11.333-2.683 3.464-4.829 6.681-5.665 11m63 43c-.105-4.926-2.793-10.212-1.911-15 2.385-12.957 10.812-25.527 5.911-39-7.893 2.216-12.163 9.639-14.435 17-1.112 3.6-3.095 7.185-3.29 11-.451 8.872 7 20.81 13.725 26m24 0c6.864-3.509 14.605-17.137 14.63-25 .015-4.454-2.493-8.867-3.888-13-1.659-4.912-4.034-9.267-7.912-12.847-1.39-1.284-3.383-2.934-5.396-1.977-4.124 1.959-2.231 10.453-1.68 13.824.885 5.42 2.262 10.785 3.994 16 .972 2.924 2.976 5.88 3.156 9 .245 4.27-1.875 9.822-2.904 14m-112-34c5.844-1.34 10.962-2.464 14-8-5.159-.408-12.254 2.886-14 8m187-9c1.9 6.208 7.709 8.79 14 8-3.668-3.971-8.733-6.795-14-8m-88 18c-1.733 3.837-4.19 7.702-4.505 12-.365 4.992 1.353 10.015 1.247 15-.079 3.673-1.03 11.34 5.084 10.863 4.643-.361 4.162-6.662 4.174-9.863.038-10.674 1.172-17.828-3-28h-3m-15 36c.004 5.475.342 10.758 2 16 2.707-5.091 2.459-10.891 0-16h-2m30 16c2.974-4.348 2.957-10.827 3-16-6.306 3.183-4.756 10.115-3 16m-14 2c-2.372 4.348-6.7 10.128-7.466 15-.647 4.114 2.77 7.116 3.253 11 .907 7.282-1.215 15.492-.697 23 .515 7.484 3.302 14.561 3.91 22 4.025-2.537 4.135-7.582 4.999-12 1.488-7.607 2.314-15.242 1.962-23-.138-3.024-1.272-6-1.27-9 .003-4.381 4.202-7.519 3.471-12-.785-4.81-5.089-11.291-8.162-15z" fill="#fff"/></svg>