<svg width="35" height="49" fill="none" xmlns="http://www.w3.org/2000/svg"><path d="M4.065 17.702c0-1.686-.006-3.339 0-4.993a12.506 12.506 0 012.252-7.16A12.923 12.923 0 0112.3.88c7.613-2.966 16.268 1.883 17.442 9.835.231 1.563.144 3.173.193 4.76.019.63.015 1.26 0 1.892-.006.257.07.378.33.472 2.38.851 3.73 2.758 3.733 5.24 0 2.743.016 5.485 0 8.228-.052 7.745-5.203 14.237-12.817 16.175C11.698 49.89 1.887 43.678.29 34.236c-.17-1.04-.26-2.093-.27-3.147-.036-2.627-.012-5.263-.011-7.894 0-2.657 1.33-4.51 3.888-5.424.044-.016.087-.036.168-.069zm12.984 2.114H5.65c-1.985 0-3.324 1.324-3.326 3.27 0 2.663-.038 5.327.017 7.989.024 1.173.123 2.369.386 3.511 1.733 7.55 9.45 12.404 17.177 10.854a14.76 14.76 0 008.46-5.008 14.205 14.205 0 003.31-9.12v-8.177c0-2.014-1.327-3.318-3.375-3.319h-11.25zm10.567-2.294c0-1.66.014-3.266 0-4.872-.028-2.661-.924-5.012-2.79-6.954C21.914 2.67 18.33 1.58 14.24 2.67c-4.022 1.068-6.563 3.736-7.563 7.7-.585 2.32-.223 4.706-.272 7.064 0 .024.032.05.077.116h4.24v-.567c0-1.199-.012-2.396 0-3.594.04-3.082 2.5-5.691 5.653-6.014 3.081-.318 6.049 1.733 6.7 4.722.193.896.16 1.844.193 2.77.029.877.006 1.755.006 2.657l4.34-.003zm-6.665.007c0-1.4.018-2.752 0-4.103a3.83 3.83 0 00-1.195-2.691 3.997 3.997 0 00-2.782-1.096 3.994 3.994 0 00-2.766 1.132 3.827 3.827 0 00-1.158 2.707c-.012 1.212 0 2.425 0 3.637 0 .134.021.269.033.413l7.868.001z" fill="#F41132"/><path d="M17.036 23.2c5.12.043 9.221 4.111 9.177 9.102a8.927 8.927 0 01-2.757 6.353 9.318 9.318 0 01-6.539 2.584 9.31 9.31 0 01-6.49-2.699 8.92 8.92 0 01-2.64-6.4c.038-4.939 4.222-8.982 9.249-8.94zm-.052 2.27a7 7 0 00-3.83 1.148 6.78 6.78 0 00-2.531 3.037 6.617 6.617 0 00-.38 3.903 6.707 6.707 0 001.9 3.45 6.943 6.943 0 003.54 1.835 7.033 7.033 0 003.984-.4 6.863 6.863 0 003.084-2.502 6.646 6.646 0 001.143-3.757 6.692 6.692 0 00-2.041-4.75 6.985 6.985 0 00-4.87-1.963v-.001z" fill="#F41132"/><path d="M15.782 32.706c.162-.152.29-.266.415-.387 1.07-1.047 2.137-2.098 3.211-3.141.6-.582 1.4-.612 1.932-.09.533.524.509 1.282-.106 1.885-1.454 1.43-2.911 2.856-4.371 4.28-.664.647-1.375.653-2.028.019a169.974 169.974 0 01-2.083-2.038c-.594-.589-.624-1.324-.09-1.846.536-.522 1.31-.491 1.893.074.407.403.805.813 1.227 1.244z" fill="#F41132"/></svg>