<svg width="46" height="44" fill="none" xmlns="http://www.w3.org/2000/svg"><path d="M19.061 34.365c0 1.525.006 3.05 0 4.575-.012 2.91-2.119 5.053-4.966 5.056H5.191c-2.815 0-4.942-2.145-4.96-5.025a723.37 723.37 0 010-9.246c.018-2.812 2.167-4.981 4.91-4.986 2.983-.005 5.967-.005 8.95 0 2.881.008 4.962 2.147 4.971 5.098.003 1.514 0 3.024 0 4.528zm-2.585-.01c0-1.511.01-3.022 0-4.532-.012-1.495-.95-2.442-2.408-2.443H5.161c-1.363 0-2.347 1.02-2.348 2.422v9.01c0 1.577.935 2.536 2.469 2.538 2.939.003 5.877.003 8.815 0 1.431 0 2.37-.959 2.376-2.42.006-1.52 0-3.045 0-4.571l.003-.005zM6.772 9.665c.137-.133.26-.248.377-.367a6410.19 6410.19 0 018.557-8.73 1.98 1.98 0 01.889-.533c.519-.128.97.104 1.262.576.293.472.297.952 0 1.416-.115.167-.247.32-.393.46a8262.23 8262.23 0 01-9.523 9.745c-.814.831-1.428.85-2.26.04A1820.904 1820.904 0 01.462 7.201c-.487-.479-.589-1.078-.306-1.63.13-.263.343-.472.606-.591.263-.12.558-.142.836-.064.274.095.524.252.731.459C3.745 6.73 5.147 8.099 6.556 9.462c.062.063.13.123.216.203zm29 20.625h8.813c.843 0 1.403.514 1.416 1.276.014.806-.554 1.364-1.437 1.366a2172.4 2172.4 0 01-9.552 0c-2.661 0-5.323.008-7.984-.016a2.06 2.06 0 01-1.033-.297c-.462-.292-.605-.908-.435-1.423.184-.567.646-.912 1.261-.914 1.293-.005 2.585 0 3.878 0h5.078l-.005.008zm-.146-27.944c2.907 0 5.816.03 8.721-.016 1.031-.016 1.542.71 1.542 1.314 0 .816-.595 1.344-1.56 1.345-5.108.003-10.216.003-15.322 0-.738 0-1.477.005-2.216 0-.878-.012-1.43-.56-1.414-1.385.015-.755.58-1.256 1.432-1.256 2.94-.002 5.879-.002 8.817-.002zm-3.593 36.109h-5.12c-.861 0-1.428-.541-1.419-1.321.01-.78.59-1.322 1.44-1.322h10.244c.858 0 1.437.542 1.44 1.313 0 .804-.573 1.333-1.463 1.335h-5.121v-.005zm-.115-27.944H26.84c-.908 0-1.46-.504-1.469-1.321-.008-.777.6-1.322 1.478-1.322h10.196c1.041 0 1.69.85 1.371 1.77-.184.53-.624.862-1.244.866-1.747.015-3.5.008-5.254.008z" fill="#F41132"/></svg>