<svg width="48" height="42" fill="none" xmlns="http://www.w3.org/2000/svg"><path d="M33.425 30.53c.468-.313.871-.614 1.304-.867 2.462-1.444 4.907-2.915 7.406-4.3 2.471-1.367 5.602.261 5.85 2.989.1 1.101-.317 2.025-1.097 2.794a40.793 40.793 0 01-10 7.24 36.326 36.326 0 01-9.259 3.268c-3.067.663-6.267.37-9.16-.839-1.615-.663-3.207-1.405-4.789-2.155-.608-.288-1.122-.282-1.69.077-1.344.854-2.708 1.679-4.066 2.512-.837.513-1.451.352-1.913-.502C4.094 37.2 2.178 33.655.263 30.107c-.486-.898-.308-1.447.61-1.912.562-.282 1.124-.575 1.689-.854a30.958 30.958 0 003.9-2.297c2.856-1.974 6.011-3.169 9.567-2.876 2.557.21 4.856 1.058 6.69 2.957.38.39.988.611 1.53.784 1.76.564 3.593.71 5.425.846.904.07 1.788.213 2.599.659 1.174.64 1.577 1.591 1.21 2.88-.013.058-.03.116-.058.237zM7.252 27.225c1.607 2.953 3.187 5.86 4.779 8.761a.445.445 0 00.35.197c.888-.103 1.678.15 2.463.536a87.212 87.212 0 003.778 1.751c2.814 1.223 5.698 1.634 8.75.924 2.82-.659 5.53-1.569 8.112-2.854a37.557 37.557 0 009.736-6.958 1.79 1.79 0 00.449-.891c.11-.576-.226-.988-.699-1.28-.603-.37-1.23-.385-1.843-.023-2.716 1.605-5.417 3.233-8.15 4.815a13.25 13.25 0 01-2.438 1.128c-3.363 1.119-6.834 1.222-10.328.879-.79-.078-1.563-.364-2.33-.6-.441-.135-.691-.487-.727-.954-.065-.847.695-1.402 1.57-1.122 1.854.594 3.74.794 5.669.486 1.565-.25 3.052-.709 4.297-1.733.265-.217.464-.51.694-.767l-.063-.182c-.583-.109-1.163-.238-1.75-.323-1.797-.262-3.61-.46-5.394-.779-1.124-.2-2.234-.584-3.028-1.453-1.498-1.64-3.43-2.264-5.557-2.363-3.116-.142-5.803 1.058-8.34 2.805zm2.81 10.051l-4.826-8.753-2.546 1.291 4.862 9.006 2.51-1.544zM27.817 0c5.311.015 9.608 4.306 9.59 9.576-.018 5.195-4.362 9.464-9.62 9.455-5.301-.01-9.61-4.313-9.591-9.58.018-5.197 4.364-9.466 9.62-9.451zm7.31 9.52c0-4.003-3.313-7.281-7.344-7.264-4.03.017-7.307 3.275-7.307 7.252 0 4.004 3.307 7.276 7.343 7.267 4.014-.009 7.307-3.28 7.308-7.256z" fill="#F41132"/><path d="M25.402 13.23c-.65-.017-1.003-.211-1.224-.624-.22-.412-.181-.814.078-1.195.075-.102.16-.196.253-.282 1.643-1.63 3.287-3.256 4.93-4.878.58-.573 1.31-.619 1.799-.121.49.497.44 1.16-.144 1.741-1.641 1.629-3.28 3.26-4.942 4.872-.24.241-.58.381-.75.488zm1.257-6.2c.002.355-.137.698-.387.954s-.592.404-.952.413a1.413 1.413 0 01-.962-.393 1.383 1.383 0 01-.425-.94 1.341 1.341 0 01.387-.958 1.37 1.37 0 011.927-.025c.26.25.407.59.412.948zm5.008 4.939c.001.357-.141.7-.396.954a1.37 1.37 0 01-1.926.006 1.34 1.34 0 01-.006-1.906 1.37 1.37 0 011.926-.006c.256.252.401.594.402.952z" fill="#F41132"/></svg>