<svg width="35" height="42" fill="none" xmlns="http://www.w3.org/2000/svg"><path d="M17.458 41.125H3.164C1.282 41.12.006 39.837.009 37.992c.005-2.75-.03-5.501.01-8.252.048-3.372 2.441-6.505 5.716-7.564 1.16-.374 2.323-.737 3.486-1.101.689-.216 1.096-.061 1.547.483.697.844 1.392 1.693 2.146 2.488 1.12 1.18 2.534 1.715 4.182 1.722 1.16.005 2.33.024 3.365-.556a8.142 8.142 0 001.761-1.312c.735-.734 1.376-1.56 2.04-2.36.421-.512.831-.67 1.476-.472 1.271.393 2.546.779 3.805 1.207 3.055 1.04 5.423 4.264 5.445 7.428.02 2.791.013 5.582 0 8.374-.007 1.796-1.303 3.047-3.151 3.049-4.793.003-9.586.003-14.379-.001zm.042-2.27h14.336c.53 0 .832-.278.832-.777.004-2.778.03-5.556-.009-8.335-.032-2.255-1.755-4.588-3.853-5.31a60.923 60.923 0 00-2.807-.879.546.546 0 00-.444.133c-.544.577-1.017 1.22-1.603 1.749-.675.612-1.387 1.21-2.17 1.674-1.715 1.011-3.635 1.043-5.561.896a7.35 7.35 0 01-4.445-1.875c-.814-.731-1.518-1.579-2.249-2.393-.189-.212-.331-.264-.599-.173-.742.248-1.486.508-2.245.7-2.361.597-4.435 3.265-4.363 5.845.071 2.542.024 5.087.022 7.631 0 .934.169 1.115 1.122 1.115H17.5z" fill="#F41132"/><path d="M26.475 10.1c.096 2.383-.28 4.684-1.209 6.895-.912 2.174-2.304 4.022-4.023 5.64a4.358 4.358 0 01-2.727 1.168c-1.486.11-2.994.165-4.24-.799-.743-.573-1.406-1.266-2.017-1.98-2.488-2.903-3.728-6.268-3.71-10.055.005-1.343-.017-2.707.206-4.024.59-3.498 3.85-6.437 7.446-6.867 3.997-.48 7.464 1.281 9.326 4.766.732 1.37 1 2.85.953 4.388-.013.29-.005.58-.005.868zm-2.322.789c-.032-1.727.061-2.982-.37-4.217-.878-2.517-3.274-4.286-6.077-4.415-2.584-.119-5.203 1.496-6.266 3.85-.501 1.108-.59 2.27-.586 3.465.009 1.597.016 3.189.427 4.75.68 2.588 2.108 4.744 4.029 6.602.417.4.98.622 1.564.619.408.006.815.004 1.223 0 .633-.007 1.216-.204 1.627-.66.803-.899 1.641-1.785 2.31-2.777a12.414 12.414 0 002.119-7.218z" fill="#F41132"/></svg>