<svg width="47" height="47" fill="none" xmlns="http://www.w3.org/2000/svg"><path d="M10.013 6.948c.26.049.459.08.655.121.626.135.98.628.897 1.238a1.039 1.039 0 01-1.141.897 86.11 86.11 0 01-3.378-.337c-.66-.083-1.003-.542-.944-1.233.086-1.05.19-2.099.305-3.145.08-.736.593-1.185 1.211-1.099.665.094 1.016.626.915 1.393-.01.077-.026.151-.06.345.189-.135.304-.215.416-.301C12.2 2.278 15.93.683 20.072.187c6.66-.795 12.624.938 17.771 5.263 3.757 3.158 6.229 7.154 7.451 11.914 2.872 11.153-3.209 22.94-13.968 27.067-8.937 3.432-18.868 1.141-25.301-5.919C1.699 33.767-.273 28.13.03 21.712a22.12 22.12 0 01.937-5.372c.248-.816.845-1.191 1.548-.969.64.203.922.85.695 1.625-1.37 4.66-1.263 9.292.651 13.754 3.129 7.29 8.671 11.68 16.563 12.703 9.99 1.296 19.15-4.625 22.24-14.202 2.619-8.117-.033-17.062-6.915-22.48-3.97-3.125-8.514-4.604-13.555-4.417-4.397.162-8.355 1.633-11.857 4.307-.096.074-.182.16-.324.287z" fill="#F41132"/><path d="M37.98 23c0 8.26-6.772 15.015-15.025 14.993-8.252-.021-14.971-6.76-14.968-15.001 0-8.262 6.77-15.015 15.025-14.994 8.254.02 14.971 6.76 14.968 15.001zm-2.265.014c0-7.048-5.72-12.748-12.809-12.752-6.876 0-12.646 5.746-12.656 12.62-.015 7.091 5.671 12.837 12.713 12.847 7.002.011 12.75-5.72 12.754-12.715h-.002z" fill="#F41132"/><path d="M24.329 16.87c.37.064.741.11 1.105.19.675.152.982.637.84 1.29-.159.728-.617.994-1.34.899-.722-.095-1.462-.167-2.185-.115-.617.044-.974.462-1.03.944-.067.575.265.922.729 1.148.535.262 1.096.472 1.637.717.447.191.88.412 1.299.66 2.24 1.416 2.145 4.557-.171 5.858-.283.16-.592.283-.884.42-.105 1.407-.486 1.954-1.377 1.975-.863.02-1.296-.472-1.483-1.713-.513-.102-1.038-.188-1.553-.316-.788-.195-1.057-.674-.85-1.44.204-.738.647-.914 1.446-.764.814.147 1.639.222 2.465.224a1.237 1.237 0 001.193-.794 1.096 1.096 0 00-.395-1.342c-.398-.272-.85-.462-1.289-.672-.62-.3-1.277-.534-1.868-.883-1.092-.645-1.727-1.605-1.65-2.914.08-1.393.849-2.335 2.084-2.9.33-.15.478-.296.472-.682-.016-.929.535-1.52 1.357-1.535.837-.014 1.383.572 1.424 1.527.003.066.013.128.024.218z" fill="#F41132"/></svg>