<svg version="1.1" id="Слой_1" xmlns="http://www.w3.org/2000/svg" x="0" y="0" viewBox="0 0 220.9 78.2" xml:space="preserve"><style>.st0{fill:#fff}</style><g id="Слой_1-2"><g id="XMLID_1_"><path class="st0" d="M183 11.9c-.2 0-.7.2-.8-.1-.1-.2 1.2-.8 2.5-1.7 1.4-.9 2.7-2.1 3.8-3.5.8-1.1 1.2-2 2.6-3.7.4-.6 1-1 1.7-1.1.5 0 1 .3 1.3.7.3.4.3 1 .2 1.5-.2 1 .3 2.8 2.7 11.7 2.2 7.8 3.2 11.7 3.9 13.5 1.3 3.5 1.7 3.8 2.3 6.3.6 2.3.8 4.1 1.5 4.2.7.1 1.7-1 2.6-2.2.4-.6.4-.6 1.6-2.3l1.2-1.5c.7-.9 1-1.3 1.1-1.2s0 .4 0 .6c-.1.3-.2.6-.4.9-.5 1.1-.8 1.6-.8 1.7.1.1.3-.2.9-.5 1.1-.7 1.2-.4 2.5-1 .7-.3.9-.4 1-.3.1.1-.3.6-.7.9-.5.3-1 .5-1.5.7-.5.3-.9.7-1.2 1.1-2.2 2.6-3.3 3.9-3.8 4.7-1.4 2.1-1.6 3.1-2.4 3.1-.8 0-1.4-1-1.7-1.6-.8-1.5-1.1-3.2-1-4.9.2-2.5-.7-2.4-4.2-14.1-1.8-5.7-2.6-8.6-3-10.1-1.1-4.7-1.5-8-2.8-8.1-.6-.1-.7.6-2.8 2.7-.6.3-3.5 3.1-6.3 3.6z"/><path class="st0" d="M186.3 54.3c-4.1-2.5-10.2-4.6-10.1-4.8.8 0 1.5.2 2.3.4 1.4.3 2.7.7 4 1.2.5.2.7.3 3.2 1.4 5.1 2.2 5.3 2.2 5.8 2.7s1 .8 1.7 1c.6.1 1.4 0 3.5-1.1 2.6-1.4 4.2-2.3 4.2-3.6 0-.5-.2-.9-.4-1.3-.6-.8-1.4-1.4-2.3-1.7-1.2-.6-1.9-.9-2.6-1.2-1.7-.8-3.8-1.9-3.7-2.2 0-.1.4 0 1-.2.4-.1.7-.2 1-.5.8-.7.5-2.2.7-2.2.2 0 .4 1.3.4 1.3-.1-2-.4-4.1-.9-6.1-.3-1.6-.5-2.5-.8-3.5-.9-3.1-2-4.9-1.9-5 .1 0 .8.7 1.6 2.1.6 1 1.3 2.4 1.9 3.9.8 2.4 2 7.5 1.4 9.6-.2.4-.2.8 0 1.1.3.5.9.5 1.7.7.9.3 1.8.7 2.6 1.2 2.2 1.1 2 1.3 2.6 1.4.3 0 1.1 0 3.9-2.3 2.3-2 1.9-2 3.3-3 1.1-.8 1.8-1 2.3-2 .2-.5.5-1 .9-1.3.5-.4.9-.3 1.6-.5 1.4-.5 1.6-1.5 2-1.4.7.2 0 2.8.5 6.2.2 1.3.5 2.6 1 3.9 1.2 3.2 2.5 4.8 2 6.9 0 .1-.3 1.2-.6 1.2-.2 0-.3-.2-.7-1.4-.2-.5-.4-1.1-.5-1.7-1.3-5.3-2.3-9.6-4.1-10-1.8-.4-2.3 3.2-7.2 5.9-.7.4-1.7.9-1.7 1.6 0 .9 1.8 1.4 3.4 2.1 3.9 1.7 8.4 5.1 8.2 7.4-.1 1-1.1 1.5-2.7 2.5-8 4.9-13.6 8.4-15.3 11.7-.8 1.4-1.9 2.5-3.3 3.2-.2.1-.5.2-.6.1-.4-.4 4.1-4.8 3.7-5.2-.3-.3-2.7 1.4-2.8 1.3 1.2-1.1 2.4-2 3.7-2.9 4-3.1 3.7-3.2 6.9-5.7 4.2-3.2 6.9-4.5 6.6-5.8-.1-.2-.2-.3-1.2-1.2-2.1-1.7-1.7-1.5-3.2-2.7-1.9-1.5-1.9-1.2-3.5-2.5-1-.8-1.1-1-1.5-1.1-1.3-.1-1.4 1.9-3.9 3.7-1.5 1.1-2.7 1.3-3.1 2.6-.2.7 0 1.1-.4 1.5-.8.8-3 .4-4-.9-.5-.6-.3-.8-.8-1.5-.7-.7-1.5-1.2-2.4-1.4-1.4-.4-2.4-1.1-3.4-1.9z"/><path class="st0" d="M153.4 8.2c.6-.7 1-.9 1.4-.9 1 0 1.6 1.6 2.3 3.1 1 1.9 2.3 3.7 3.4 5.5 3 5 2.7 4 4.4 7 0 0 3.4 6.1 4.5 5.9.3 0 .5-.1.8-.2l2.2-2.2c2.5-2.5 3.4-3.3 4.8-4.6 3.2-3.1 6.3-6.4 9.2-9.9.5-.6 1.1-1.2 1.7-1.6.6-.4 2.2-1.4 3.1-.9.7.4.7 1.3.9 3.3.1 1.6.4 3.3.5 5 .3 2.8.9 5.6 1.6 8.4.2 1 .5 1.9.9 2.8.4.5.6 1.1.7 1.7 0 .1.1 1.1-.4 1.3-.5.2-1.1-.4-1.3-.5-.2-.2-.3-.3-.4-.5-.4-.5-.5-1.1-.9-1.9-.1-.2-.5-.8-1.4-2.2s-1.1-1.7-1.6-2.5c-.7-1.2-1.1-1.9-1-2.1s1.1.5 1.3.7c.9.7 1.2 1.3 1.4 1.2.2-.1 0-.5-.1-1.4-.1-.9 0-.4-.2-1.9-.2-1.8-.4-2.5-.9-5.3-.4-2.4-.4-2.8-.7-2.9-.3-.1-1.2.2-3.9 3-2.3 2.4-3.3 3.8-5.1 5.7-2.3 2.5-2 1.8-3.5 3.4 0 0-4.7 5.4-6.8 6.8-.2.1-.5.2-.7.2-.5-.1-.8-.8-1.1-1.3-.5-.8-1.1-1.5-1.7-2.2-1.6-2.2-2.6-4-4.5-6.7-2.6-3.7-2.5-3.2-3.7-5.2-.7-1.2-1.7-2.4-2.5-3.6S155 11 154.5 11c-.7 0-1.4.9-2.2 2-.4.7-.8 1.4-1.3 2-.2.2-.3.3-.3.4 0 .7 2.5.8 5.3 2.1 1.6.8 3.2 1.8 3.1 2.1-.2.4-3.4-1.8-8-1.6-1.3.1-2.5.3-3.3-.2l-.3-.3c-.7-.7-.8-1.8-.3-2.6.4-.5.9-.3 1.8-.7 1.9-.8 1.8-3.1 4.4-6zm-23.2-.3c.5 0 1-.1 2-.1 2-.2 16.7-1.4 20.1-6 .2-.3 1.2-1.8 2.6-1.8.4 0 .7.1 1 .4.3.4.3 1 .1 1.5-.4.7-1.2 1.2-2 1.4-.9.3-2.3 1.6-5.1 4.1-1.2 1.1-2.3 2.2-4.3 4.4-2.2 2.4-3.6 3.8-3.9 3.8-.2-.1.3-1.1.5-1.6l.9-1.5c1-1.2 2-2.4 3.1-3.6 1.6-1.8 2.4-2.7 2.3-2.8-.1-.1-.9.4-2.3 1.1-1.1.5-2.3 1-3.4 1.3-3.5 1-7.1 1.4-10.8 1.3-2.4 0-4.9-.2-4.9.2 0 .1.1.1.6.4.7.4 1.4.7 2.1 1 1.4.5 2.2.9 3.1.7.5-.1.9-.2 1.4-.1.7.2 1.3.6 1.7 1.1l2.5 1.7c.3.2.5.3.8.5l-.6 1.1c-2.4-1.4-5.5-2.7-8.8-3-2.9-.4-5.8-1.3-8.5-2.6-.4-.2-.7-.5-.9-.9-.4-.7-.3-1.5.2-2.1.3-.2.6-.3.9-.3 3.2-1 5.3.4 9.6.4z"/><path class="st0" d="M152.9 31.7c-1.3-.2-24.6-4.3-29.1-2.9-.8.3-1.8.3-2.6-.1-.7-.7-1-1.7-.8-2.7.8-3.6 10.4-5.6 17.8-5.3 2.2.1 3.7.4 3.8-.1.2-.6-1.6-2.5-4.4-4.2l.6-1.1c.6.4 1.2.7 1.9 1 1.2.6 2.5 1.2 3.8 1.7 1 .5 2 .9 3 1.4 4.2 2.1 8.3 4.3 12.5 6.4.7.3 2.9 1.4 2.8 2.4-.1.4-.4.7-.8.9-.3.1-.7.1-1-.1-.2-.1-.4-.1-.7-.2-.6-.2-1.2-.6-1.7-1.1-1.8-1.7-9.5-4.1-17-4.4-2.1-.1-4.2 0-6.3.2-1.6.1-3.2.4-4.7.8-.3.1-3.8 1.1-3.7 1.7 0 .3 1.3.3 4.6.5 0 0 2.9.1 6.5.4 2.2.2 4.4.4 7 .7 2.8.4 4.8.8 7.2 1.3 3.1.6 5.6 1.1 7.8 1.6 4 .8 6.8 1.4 9.4 2.2.1 0 .3.1.4.1 7.7 2.3 12.2 3.7 15.2 6 0 0 1.2 1.1 1.5.8.3-.3-1.9-4.1-3.5-6.2-.4-.4-.6-.9-.6-1.4 0-.9.9-1.8 1.1-1.7.2.1.1.6.2 1 .4 1.5 1.2 2.8 2.2 4 3.2 4 4.7 6 4.9 6.1.4.3 1.6 1.1 1.7 2.2 0 .3 0 .7-.3 1-.3.3-.8.4-1.1.4h-.6c-.9-.2-1.6-.7-2.2-1.4-1.5-2-14.8-8.4-34.8-11.9zm-49.3-15.2c-1-4.9-1.6-8-3.8-9.9-.5-.4-1.6-1.5-1.5-2.4.1-.9 1.2-1.5 1.3-1.5 2.3-1.1 4.1 1.6 7.4.9 1.5-.3 2.9-1.1 3-.9.1.2-.2.5-.3.7-1.1 1.2-2.7 1.9-4.3 2-2.4.3-3.9-.3-4.2.3-.2.4.2 1 .5 1.4 2 2.9 3.4 6 4.2 9.4.3 1.6.1 2.6.8 2.8s1.7-1.3 2.4-2.4c.6-.9 1.1-1.8 1.5-2.7.8-1.8.9-2.7 1.7-3.1.1-.1.9-.5 1.5-.2 1 .6.4 3.2.1 4.8-1 5.4-1.4 10.8-1.3 16.2 0 2.2.1 2.5.1 5.7 0 .2 0 3 .1 6.2 0 .6 0 1.1.1 1.7.3 1.8 1 2.4.8 3.5 0 .1-.2 1-.7 1.1-.8.2-1.8-1.2-1.8-1.3-.6-.9-.8-2-.8-3.1 0-1-.7-2.6-2-5.7-2.5-6-6.4-10.4-6.1-10.7.3-.2 4 2.9 6.6 7.7 1.1 2.1 1.4 3.4 1.8 3.3.9-.1-.2-6.3.3-16.4.2-3.9.5-6.3-.1-6.5-1.4-.4-5.2 10.3-6.6 9.9-1-.3.6-4.5-.7-10.8zm-14.3 5.3c1.3 1.5 1.6 2.5 2 2.3.2-.1.2-.3.2-.9h1.4c-.1 2.6-.1 4-.1 4.5.3 2 1 3.9.1 4.6-.3.2-.7.3-1 .2-.6-.2-1.1-.6-1.4-1.2-.3-.6-.5-1.4-.5-2.1-.1-1.3-.9-2.5-2.6-4.7-1.1-1.4-2.3-2.7-3.7-3.9-.9-.9-2-1.7-3.2-2.3-.6-.2-1.1-.4-1.6-.8-.3-.3-.5-.6-.9-.7-.4-.1-.5.1-1 .2-.6.2-1.3.1-1.9-.3-.1-.2-.2-.7-.1-1.2.2-.6.9-.8 1.4-.9 3.5-1 4-.4 5.9-1.2.8-.5 1.7-.7 2.6-.5.1 0 .8.3.8.5s-.5.4-.7.5c-3.1 1.1-4 1.5-4 1.8 0 .3.6.4 1.4.9.5.2 1.3.9 2.8 2 1.6.9 2.9 2 4.1 3.2z"/><path class="st0" d="M56.8 9c-1.7-.7-3.2-.7-4.4-2.1-.2-.2-.7-.9-.5-1.3.4-.7 2.1-.3 3.4-.2 2.6.4 5.3.3 7.9.5 1.8.2 4.4.1 9.7.1l6.6-.1c3.7 0 5.5 0 7.5-.1l3.4-.1c1-.3 2-.3 3-.1.2.1 1.1.4 1.3 1.1.1.4 0 .8-.3 1.2-.4.6-.5 2.2-.9 5.2-.3 3.4-.5 6.5-.5 8.9v1.2h-1.4c0-.7-.1-1.8-.2-3.3-.2-5.4-.4-8.1.2-9.6.3-.6.6-1.7.3-2.1-.3-.4-1-.2-2.2-.1-1.1 0-2.2-.1-3.4-.2-1.4 0-2.9.1-4.3.3-2.2.2-5.1.1-11.1 0-2.9-.1-4.3-.1-4.9-.1-4.4-.1-6.8-.3-6.9.2 0 .1.1.3.8.7 1.1.7 2.3 1.2 3.5 1.7 2.4 1.2 1.7 2.4 4 3.4 1 .3 1.9.8 2.6 1.6.1.1.6.9.4 1.2-.2.3-.8.1-1 .1-2.5-.5-7.2-4.2-8.7-5.4-1.1-.9-2.5-1.8-3.9-2.6zm-.9 17.8c-3.1-.7-4.8-1-7-1.3l.3-2c5.4.8 13.5 2 22.8 3.7 12.2 2.3 13.8 3.2 13.8 4 .1 2.1-10.2 2.8-31 8.3-10.9 3-21.7 6.6-32.1 11l-1.1-2.6c3.1-1.3 5.9-2.3 8.2-3.2 14.2-5.4 22-8.4 32.8-10.5 6.5-1.3 15.1-2.4 15.1-2.7-.1-.1-1.1 0-3.1-.3-1.6-.2-3.1-.6-4.6-1.1-.6-.2-.4-.1-6.2-1.4-6.6-1.6-6.2-1.6-7.9-1.9z"/><path class="st0" d="M13.6 51.2c2.8-1.2 5.5-2.3 7.9-3.3l1.1 2.6c-1.1.4-2.2.9-3.4 1.4-2.5 1-5 2.3-7.4 3.6-1.3.8-2.7 1.5-4 2.4-2.4 1.5-3.6 2.5-5.3 2.4-.8 0-1.6-.3-2.2-.9-.4-.6-.5-1.3-.3-2 .5-2.2 3.4-2.7 6.5-4.7 1.8-1.1 3-2.5 5.5-5.3 6.8-7.7 8.8-16 9.8-15.7.6.2.1 3.2-.1 4.1-.1.8-.4 2.2-2.7 7.4-.6 1.6-1.4 3.2-2.3 4.7-.9 1.1-1.9 2.3-3.1 3.3zm10.2-28.7c-8.5-.3-12.9 0-12.9-.4 0-.2 1.3-.4 6.9-1.6 3.6-.8 3.2-.8 3.8-.9 3.5-.6 5.4-.1 9.6.1.8 0 .4 0 7.2-.1 8.7-.1 13-.2 14-.2 8.2 0 9.9.2 10.1-.4.3-1.2-4.8-2.4-14.1-8.2-3-1.9-5.4-3.6-6.7-2.7-1.7 1.1-.4 5.8-.9 5.9-.5.1-1.4-2.8-3.4-7.2-1.9-4.2-2.9-5.6-2.4-6 .7-.6 3.3 1.5 8.3 4.5 3.1 1.9 6.2 3.5 9.4 5.3 13.1 7.4 18.7 8.5 18.5 10-.5 3.2-28.6 1-28.6 1.7 0 .2 2.5.6 6.7 1.2l-.3 2h-.1c-4.1-.5-4.3-.2-7.9-.7-4-.6-4.4-1.1-8.2-1.7-3-.4-6-.6-9-.6z"/></g></g></svg>