<svg width="144" height="35" fill="none" xmlns="http://www.w3.org/2000/svg"><path d="M24.118 31.021H8.604L16.9 14.968h15.346L24.118 31.02zM25.107 0H8.297L0 14.968h16.807L25.107 0zm14.801 31.03h16.807L41.913 0H25.107l14.801 31.03z" fill="#F41132"/><path d="M60.442 11.306l1.993-1.154c.564 1.572 1.731 2.347 3.503 2.347 1.752 0 2.617-.736 2.617-1.83a1.43 1.43 0 00-.173-.742 1.452 1.452 0 00-.532-.551c-.462-.3-1.307-.637-2.496-.995-1.349-.398-2.012-.657-2.959-1.274-.905-.636-1.368-1.551-1.368-2.804 0-1.234.444-2.209 1.331-2.924.882-.735 1.95-1.094 3.193-1.094 2.253 0 4.006 1.154 4.916 3.064l-1.952 1.114c-.585-1.293-1.571-1.95-2.964-1.95-1.349 0-2.214.676-2.214 1.73 0 1.035.684 1.513 2.838 2.169.544.18.922.299 1.167.398.262.08.605.218 1.047.397.368.134.713.322 1.024.557.745.577 1.55 1.532 1.45 2.865 0 1.253-.463 2.268-1.39 3.004-.905.735-2.113 1.094-3.602 1.094-2.71 0-4.683-1.293-5.429-3.421zm20.533-6.784h2.174v9.947h-2.174v-1.433c-.826 1.134-1.993 1.692-3.522 1.692-1.39 0-2.561-.497-3.543-1.512-.983-1.016-1.47-2.269-1.47-3.72 0-1.472.483-2.706 1.47-3.72.986-1.014 2.15-1.512 3.543-1.512 1.53 0 2.697.557 3.522 1.671V4.522zm-3.18 8.156c.905 0 1.67-.299 2.275-.895.604-.616.905-1.372.905-2.287 0-.915-.302-1.671-.905-2.268-.605-.617-1.369-.911-2.275-.911-.907 0-1.67.298-2.275.91-.604.597-.906 1.353-.906 2.269 0 .91.302 1.671.906 2.287.603.597 1.368.895 2.274.895zM90.958 2.354c-1.59-.14-2.375.517-2.375 1.97v.202h2.375v2.065h-2.375v7.878h-2.174V6.59h-1.53V4.522h1.53V4.32c0-2.725 1.57-4.218 4.55-4.039l-.001 2.073zm2.517 8.056c.321 1.513 1.55 2.348 3.22 2.348 1.148 0 2.013-.418 2.597-1.234l1.792 1.035c-.987 1.452-2.459 2.168-4.405 2.168-1.63 0-2.962-.497-3.97-1.468-1.006-.995-1.51-2.248-1.51-3.759 0-1.492.504-2.725 1.49-3.72.986-1.012 2.275-1.512 3.824-1.512 1.47 0 2.678.517 3.624 1.532.947 1.014 1.434 2.268 1.434 3.72-.004.3-.031.598-.081.894l-8.015-.003zm5.897-1.75c-.302-1.61-1.45-2.445-2.878-2.445-1.61 0-2.738.935-3.04 2.446h5.918zM70.365 31.011l-.987-2.805h-5.996l-.987 2.805H59.88l5.113-13.924h2.777l5.093 13.924h-2.497zm-6.22-4.953h4.468l-2.234-6.286-2.234 6.286zm19.245-1.154v6.107h-2.174v-5.889c0-1.491-.865-2.307-2.253-2.307-1.53 0-2.56.935-2.56 2.864v5.331H74.23v-9.945h2.177v1.273c.664-1.012 1.69-1.531 3.12-1.531 2.308 0 3.862 1.55 3.862 4.097zm10.307-3.839h2.171v9.946h-2.171V29.58c-.826 1.133-1.993 1.691-3.523 1.691-1.388 0-2.56-.497-3.542-1.512-.983-1.015-1.47-2.267-1.47-3.72 0-1.471.483-2.705 1.47-3.72.986-1.013 2.15-1.511 3.542-1.511 1.53 0 2.698.556 3.523 1.67v-1.412zm-3.18 8.156c.905 0 1.67-.299 2.274-.895.605-.617.906-1.373.906-2.288 0-.915-.302-1.67-.906-2.267-.604-.616-1.368-.91-2.274-.91-.907 0-1.671.298-2.275.91-.604.597-.906 1.352-.906 2.267 0 .911.302 1.671.906 2.288.603.596 1.368.895 2.275.895zm7.89 1.79V16.49h2.173v14.52h-2.173zm11.474-9.946h2.315l-3.865 10.264c-.966 2.566-2.596 3.8-4.916 3.66v-2.01c1.368.08 2.133-.576 2.677-1.949l.103-.202-4.268-9.767h2.375l2.999 7.22 2.58-7.216zm9.299 2.069h-2.496v4.774c0 1.273.845 1.253 2.496 1.174v1.93c-3.322.397-4.671-.498-4.671-3.104v-4.774h-1.852v-2.07h1.852v-2.148l2.175-.637v2.785h2.496v2.07zm2.074-3.959a1.362 1.362 0 01.025-1.924 1.398 1.398 0 011.948-.005 1.333 1.333 0 01-.021 1.93 1.388 1.388 0 01-1.952 0zm-.102 11.836v-9.946h2.174v9.946h-2.174zm5.637-1.254c-1.007-1.012-1.51-2.248-1.51-3.72 0-1.491.503-2.724 1.51-3.72 1.024-1.011 2.295-1.511 3.805-1.511 1.952 0 3.687.995 4.489 2.566l-1.872 1.073c-.463-.954-1.434-1.531-2.638-1.531a3.065 3.065 0 00-2.234.895 3.254 3.254 0 00-.884 2.226c0 .826.316 1.622.884 2.227a3.065 3.065 0 002.234.895c1.188 0 2.194-.597 2.678-1.532l1.872 1.055c-.866 1.591-2.577 2.586-4.529 2.586-1.51.003-2.778-.497-3.805-1.509zm13.688-4.656c1.549.338 3.563.975 3.522 3.104 0 .954-.382 1.71-1.127 2.247-.744.538-1.67.816-2.798.816-1.993 0-3.462-.875-4.106-2.328l1.872-1.074c.342.955 1.087 1.433 2.235 1.433 1.147 0 1.712-.378 1.712-1.114 0-.636-.845-1.012-1.913-1.273-1.509-.378-3.542-.975-3.502-3.064 0-.91.342-1.65 1.046-2.208.705-.558 1.591-.835 2.638-.835 1.67 0 3.019.775 3.724 2.069l-1.832 1.012c-.342-.756-.986-1.134-1.891-1.134-.826 0-1.47.358-1.47 1.055-.002.66.843.998 1.89 1.294z" fill="#000"/></svg>