<svg xmlns="http://www.w3.org/2000/svg" width="1576" height="530"><path d="M0 0v530h1576V0H0z" fill="#fff"/><path d="M179 342c-11.169 1.362-21.655 7.725-33 8-2.406 1.943-5.777 2.752-6.682 6.059-1.424 5.205 2.123 14.203-1.921 18.418C134.225 377.783 125.239 376 121 376c-.482-2.364-.636-2.518-3-3 0-21.029-1-42.036-1-63 0-4.897 1.276-18.203-4.232-20.843-2.865-1.374-7.784.927-10.768 1.419-11.66 1.921-23.38 8.662-35 9.424-.9 2.124-.876 2.101-3 3v53c0 4.921 1.892 14.849-2.318 18.397-3.975 3.349-14.01 1.823-18.968 1.72-14.077-.294-27.898.225-41.714 2.883 2.463 4.902 6.941 6.067 12 7.424 9.919 2.662 20.745 7.818 31 8.522 5.758.395 16.059-2.303 19.852 3.202 4.608 6.688 1.711 18.166 2.238 25.852 1.003 14.651.191 29.343 1.012 44 .51 9.097 1.986 17.73 1.894 27-.075 7.641 1.076 15.503.742 23-.154 3.47-.65 8.804 3.41 10.357 4.636 1.774 10.574-1.463 14.852-2.831 10.385-3.32 22.046-9.291 33-9.526 0-25.997-.075-52.034-1.019-78-.54-14.875-3.04-28.1.019-43h59c6.626 0 17.566 2.116 23-2 3.854 2.7 8.432 2 13 2 7.698 0 15.405-.41 23 1-1.519 8.977.564 18.938.961 28 .654 14.941.039 30.044.039 45-5.898-.318-10.99-3.129-16.424-5.204-4.248-1.622-9.17-2.45-13.576-3.72-18.129-5.225-35.943-10.906-54-16.241-4.272-1.262-8.693-1.491-13-2.835-2.042 6.909-1.11 14.239 1 21 13.084 1.798 26.365 8.152 39 12.041 24.495 7.54 49.23 14.686 74 21.214 8.762 2.31 17.139 6.409 26 8.461 2.583.598 7.974 1.899 9.972-.473 1.512-1.794 1.027-5.084 1.028-7.243.003-6.041-.998-11.952-1-18-.005-13.098 1.332-26.987-.129-40-1.277-11.377-5.576-28.311.129-39l-2-4c5.259-.641 14.804-4.832 19.411-.397C313.3 398.347 312 407.154 312 412c0 10.263-.645 20.762.054 31 .396 5.792 1.946 11.067 1.946 17 7 2.329 13.984 4.379 21 6.53 7.103 2.178 13.447 5.407 21 5.47v3h9c.37-17.918 0-35.976 0-54 0-6.938-1.964-17.474.742-23.941 1.665-3.979 5.52-4.033 9.258-4.058 7.666-.053 15.334-.004 23-.001 3.39.002 7.833-.622 10.258 2.318 1.957 2.373 1.726 5.803 1.741 8.682.032 5.999-.085 12.002.006 18 .341 22.572 1.451 45.453 1.995 68 9.587 2.584 19.426 5.537 29 8.529 7.532 2.354 15.004 5.404 23 5.471 0-14.563.938-29.474-.054-44-.212-3.102-1.472-5.93-1.817-9-.842-7.503-.129-15.452-.129-23 0-11.924-.392-23.351 2-35 4.731 0 12.786-1.538 16.7 1.603 5.748 4.611 3.3 16.976 3.3 23.397v41c0 6.403-.343 16.17 3.028 21.852 2.41 4.063 10.732 5.202 14.972 6.392 11.737 3.293 22.973 7.287 35 9.756V392c5.889-.001 11.23-1.771 17-1.981 22.601-.823 45.383-.019 68-.019h21c3.096.001 7.127-.549 9.682 1.603 2.809 2.367 2.044 6.179 2.577 9.397 1.362 8.215 1.724 16.569 1.741 25 .066 33 0 66 0 99 18.14 1.936 34.057-11.988 52-12-.379-7.234.67-14.384.67-21.576 0-23.082-.67-46.29-.67-69.424 0-7-.044-14.001.001-21 .021-3.35-.032-7.232 2.767-9.617 2.499-2.129 6.081-1.556 9.116-1.645 6.369-.186 12.748.14 19.116-.094 28.876-1.064 58.012-.644 87-.644 0 7.954 1.415 15.23 1.946 23 .654 9.578.054 19.399.054 29 0 5.674 1.692 14.628-.603 19.887-1.359 3.113-4.605 2.655-7.397 2.079-2.793-.576-5.245-2.014-8-2.686-5.142-1.254-11.187-1.382-15-5.28-7.291.301-14.114-3.468-21-5.456-8.913-2.573-18.201-4.248-27-7.42-4.428-1.596-13.117-7.558-17.436-3.521-4.253 3.976-1.567 13.242-1.564 18.397 11.814 2.669 22.688 8.992 35 9v3c9.747.034 18.098 5.917 28 6v3c7.518.088 14.847 3.404 22 5.456l42 11.974c7.026 2.011 14.699 5.339 22 5.57 2.35-12.66.88-26.185.71-39-.169-12.653.552-25.33.171-37.999-.2-6.661.116-13.336.119-20.001.002-4.619-.148-9.926 2.76-13.852C887.212 385.489 894.915 387 900 387c3.215 15.659 2 31.982 2 48 0 5.237-1.871 15.032 1.434 19.427 3.1 4.124 13.741 5.556 18.566 5.573v3c6.239.005 16.576 1.482 21 6h11c0-4.706-.255-8.774 2-13-2.936-6.928-2-14.603-2-22 0-11.586-.735-23.443.054-35 .28-4.105 1.826-7.842 1.946-12h32c3.979 0 9.438-.877 11.821 3.148 3.049 5.151 1.179 15.044 1.179 20.852v68c.02 2.209-.36 5.417 1.6 6.972 2.45 1.939 7.47 1.028 10.4 1.028v3c8.46.181 19.01 3.259 27 6.169 2.97 1.081 8.42 3.449 10.97.228 1.5-1.888 1.03-5.162 1.03-7.397v-18c0-23.779.94-47.634.95-71.116 0-3.134.63-8.492 2.71-10.906 3.31-3.847 13.29-4.68 16.82-.66 5.3 6.035-1.45 17.117 3.52 23.682-2.01 3.831-1.23 6.823-1.54 11-.76 10.303.45 20.726-.46 31 3.92.289 7.15 1.098 11 0v4c6.32-1.322 12.09 1.797 18 3.826 6.68 2.296 14.03 3.875 21 5.174 2.78-6.224 1.41-14.257 1.4-21-.02-11.974.6-23.953.6-36 0-5.499-1.24-12.822.86-18 4.78-11.784 21.97-8 32.14-8 4.17 0 10.31-1.095 12.82 3.148 3.05 5.151 1.18 15.044 1.18 20.852v68c.01 2.025-.28 4.689 1.03 6.411 2.16 2.84 8.64 3.631 11.88 4.758 5.03 1.752 10.02 4.253 15.18 5.547 5.92 1.485 12.49 1.387 17.91 4.284 7.38-4.798 5-15.201 5-23v-39c0-6.596-1.17-14.058 2-20-1.45-6.631-.2-15.126.02-22 .08-2.634.27-5.537 2.41-7.397 2.5-2.165 6.52-1.608 9.57-1.603 2.41.004 5.56-.388 7.68 1.028 3.06 2.038 2.32 6.822 2.32 9.972 0 8.579 2.11 20.306-2 28 2.16 4.292.53 7.544.11 12.039-.49 5.3.2 10.654-.11 15.961 7.31 2.744 14.52 4.248 21.91 6.544 9.64 2.996 19.01 7.008 29.09 8.456 3.39-8.065 2-19.269 2-28 0-18.113-.64-36.275 3-54 10.64 0 21.39.335 32-.335 3.49-.22 6.61.27 10-.665 1.91 8.024 1 16.791 1 25v63c0 2.773-.46 6.204 1.03 8.695 2.5 4.195 6.8 3.665 10.88 4.603 7.55 1.736 14.15 5.674 22.09 5.702-.99 1.478-1 1.203-1 3 5.76 0 11.28.549 17 1 2.38-18.844.33-38.041 1.02-57 .14-3.796 1.67-7.236 1.93-11 .76-11.141-.02-22.44.95-33.576.28-3.217 1.71-6.201 2.1-9.424 4.58-.102 13.77-1.804 17.15 2.032 3.15 3.57 1.85 11.6 1.85 15.968 0 12.739-.68 25.394-1.29 38-.13 2.736 1.24 5.238.98 8-.39 4.13-.19 8.642-.79 12.665-.47 3.188-1.72 6.889-.3 10.036 3.07 6.807 16.42 7.107 22.4 9.179 6.09 2.11 12.62 4.45 19 5.243 2 .249 4.73 1.468 6.68.59 4.14-1.856 2.29-13.794 3.32-17.713 1.95-7.435.71-15.381 1.04-23 .58-13.345.96-26.597.96-40 0-6.01-1.78-18.301 5.22-21.397 5.68-2.506 15.64-.603 21.78-.603 16.56 0 32.68-.039 49-1.871 5.9-.663 18.78 2.566 23.01-2.693 2.63-3.272 1.85-9.494 1.99-13.436-8.86-1.646-18.01-1.013-26.99-.824-13.02.274-26.01.491-39.01.809-40.61.995-81.37.015-122 .015 1.47-7.06 7.92-6.368 14-7 .68-1.58.8-1.777 2-3-1-19.003.82-38.026 0-57-5.59.001-10.12.012-15 3-.04-3.981-.25-7.613-2.65-10.981-3.88-5.436-10.69-7.296-14.5-13.02-5.13-7.719-.55-16.999-4.28-24.998-3.13-6.696-11.06-8.703-14.79-15.016-3.2-5.426-9.27-16.967-17.55-11.956-5.68 3.435-4.12 19.843-1.66 24.97 3.4 7.088 11.74 8.552 15.87 15.016 5.25 8.235.91 17.793 4.7 25.981 3.23 6.981 12.14 9.83 16.86 16.004-13.47 1.919-27.15 7.99-40 12.31-15.64 5.259-31.47 9.347-47 14.856-10.2 3.616-21.31 9.31-32 10.834-.39 4.891-.62 9.107 0 14h34c4.31 0 10.73 1.178 14.74-.603 3.52-1.567 4.77-5.958 5.26-9.397 10.19-2.099 20.55-7.739 31-8 2.81-2.153 6.63-2.794 10-4 .92 2.999 2.48 5.86 2.87 9 .46 3.734-.84 8.622 2.45 11.397 3.93 3.309 12.85 1.603 17.68 1.603-7.12 7.845-14.44 5.744-24 5.09-6.62-.454-13.37-.09-20-.09h-90c-14.8 0-30.72 2.808-45-1 5.28-1.56 10.65-.342 16-1.34 7.7-1.435 14.03-5.633 22-5.66 1.72-13.586-.32-27.465 1.61-41 .62-4.372 3.45-11.875-2.8-13.682-9.18-2.656-21.52 4.71-29.81 7.802-4.18 1.557-8.78 1.663-13 3.201-3.28 1.196-12.2 6.332-15.44 3.887-3.96-2.985-2.56-11.937-2.56-16.208v-29c0-5.163.7-10.923-.34-16-2.47-12.011-21.24-11.308-19.43-26 .21-1.743.81-3.428 1.61-4.985 3.42-6.633 11.01-6.876 15.64-12.123 3.06-3.468 5.15-7.576 8.56-10.784 3.31-3.113 7.55-4.804 10.66-8.163 4.01-4.332 6.85-9.697 12.3-12.492 6.75-3.462 16.57-3.45 24-3.453h37c7.13 0 16.1-1.454 23 .434 6.97 1.906 10.31 9.413 14.52 14.547 2.9 3.54 7.01 5.08 10.15 8.243 3.68 3.686 5.31 8.818 8.72 12.667 3.15 3.565 11.02 7.338 14.29 1.88 4.04-6.752 1.84-21.937-3.21-27.558-2.88-3.206-7.19-4.473-10.3-7.426-4.17-3.961-6.55-9.422-10.63-13.447-2.5-2.459-5.8-3.586-8.5-5.755-5.33-4.291-7.74-13.095-14.21-15.843-8.71-3.698-18.41 2.07-26.74-4.38-4.51-3.497-6.41-9.213-10.28-13.307-3.63-3.846-8.95-5.185-12.42-9.16-3.95-4.52-5.69-10.952-11.39-13.868-7.63-3.9-17.38-.445-25-5.035-5.95-3.59-8.41-10.603-14.04-14.392-3.68-2.482-8.71-2.344-12.96-2.686-7.06-.567-13.9-.914-21-.914-3.66 0-8.56-.769-11.85 1.179-6.33 3.748-1.94 13.75 3.87 15.387 6.72 1.896 14.3-1.122 20.98 1.137 8.32 2.814 10.79 12.209 18 16.359 6.79 3.907 15.81 1.31 23 3.908 12.76 4.609 17.38 24.082 9.49 35.015-8.08 11.195-20.62 5.874-31.45 10.359-6.34 2.625-8.62 9.898-13.22 14.471-6.68 6.64-23.94 8.076-31.81 2.532-5.51-3.886-7.61-10.518-12.31-15.123-3.64-3.568-8.31-4.803-11.23-9.264-3.82-5.84-7.31-15.613-16.41-13.602-5.34 1.179-4.1 8.568-4.06 12.642.11 8.72 2 17.202 2 26 0 4.159.24 8.28-2.15 11.91-9.86 15.017-35.1 7.942-49.85 10.238-9 1.4-11.84 13.237-20 16.762-6.68 2.887-22.91 2.672-28.91-1.613-4.733-3.38-6.792-9.274-11.183-12.995-4.35-3.685-9.803-4.418-13.397-9.317-6.48-8.834.984-19.109-3.828-27.942-3.374-6.193-11.485-6.67-15.149-13.047-4.498-7.827-.673-16.913-4.016-24.992-2.795-6.753-9.757-7.8-14.127-13.048-9.165-11.008-10.936-37.975 6.61-41.576 5.096-1.046 10.819-.38 16-.38h29c5.816 0 13.557-1.313 18.985 1.09 6.865 3.036 8.555 10.717 13.485 15.682 4.56 4.6 12.54 3.865 18.53 4.652 3.18.418 6.84 1.024 9.77-.742 4.57-2.76 2.31-9.387-.92-12.264-6.07-5.409-21.68-8.754-15.11-20.403.79-1.394 2.08-2.615 3.3-3.62 7.75-6.376 27.36-5.2 34.96.948 4.78 3.873 7.51 10.628 13.01 13.479 5.62 2.91 14.76 2.662 20.99 3.088 7.82.536 33.51 3.084 25.54-11.866-4.75-8.914-17.67-3.32-25.54-5.693-9.71-2.929-11.9-14.657-21-17.547-12.84-4.076-27.3 1.08-40-2.593-9.86-2.852-11.54-15.185-21-17.777-8.9-2.438-20.792-.434-30-.434-3.865 0-8.433.614-11.999-1.179-7.89-3.965-9.292-15.94-18.016-18.387C948.988.313 944.116 1 940 1H655c-7.06 0-15.046-1.04-22 .228-10.453 1.906-10.938 15.963-21 19.12-4.883 1.53-10.938.652-16 .652h-31c-4.462 0-9.69-.714-13.996.653-8.698 2.76-11.108 13.968-20.004 17.352-12.552 4.776-28.177-2.036-40.999 2.889-6.917 2.656-9.954 11.144-16.001 15.302-7.714 5.304-18.03 1.533-25.985 5.817-6.64 3.576-9.004 12.024-16.015 15.53-4.228 2.115-9.421 1.457-14 1.457-9.07 0-21.519-.966-29.96 2.843-7.304 3.296-9.259 12.995-16.055 17.148-7.741 4.731-18.487-1.32-25.811 3.751-4.992 3.456-7.026 9.953-11.278 14.15-2.876 2.838-6.712 3.939-9.712 6.526-4.298 3.707-6.454 9.378-10.484 13.369-3.101 3.071-7.384 4.395-10.515 7.426-4.116 3.985-6.414 9.46-10.613 13.447-2.798 2.658-6.482 4.023-9.271 6.68-3.826 3.644-5.92 8.696-9.602 12.475-3.35 3.438-8.033 4.996-11.373 8.398-3.428 3.491-5.64 8.051-8.942 11.682-2.932 3.225-6.932 4.608-10.084 7.495-3.912 3.585-6.079 8.624-9.626 12.516-3.766 4.133-9.762 5.482-12.946 10.138-5.634 8.237-.581 19.266-5.803 27.952-4.163 6.926-13.329 7.997-16.197 16.004-4.394 12.266 1.834 27.341-1.656 40-2.568 9.313-9.923 9.278-15.514 15.343-3.757 4.076-3.555 9.493-3.558 14.657z"/><path d="M544 54.428C536.882 55.445 530.202 56 523 56c-5.688 0-11.756-.652-16.996 2-7.261 3.675-9.62 13.034-17.019 16.143-7.476 3.14-16.617.55-23.981 4.313-7.133 3.645-9.501 12.88-17.004 15.98C439.357 98.007 427.183 97 418 97c-5.231 0-10.48-.485-14.996 2.653-4.64 3.224-7.2 8.297-11.178 12.159-4.135 4.014-9.75 5.581-13.432 10.203-7.169 9.002-6.461 27.77 1.711 35.877 8.755 8.686 19.478 1.206 28.855 6.136 9.111 4.79 10.036 22.694 24.036 18.318 7.085-2.214 8.23-10.189 12.533-15.287 4.519-5.355 18.08-5.871 24.431-3.317 6.342 2.551 6.4 10.502 10.434 15.15 3.41 3.93 8.601 4.297 12.432 7.527 3.971 3.348 5.977 8.429 10.267 11.472 12.877 9.134 30.833 1.897 44.907 5.427 7.41 1.858 10.09 10.914 16.004 15.029 6.411 4.462 20.525 3.758 27.996 2.313 7.236-1.4 9.672-7.702 14.184-12.641 4.596-5.031 11.424-6.633 14.577-13.023 4.358-8.833 3.62-21.395 3.2-30.996-.178-4.06-1.396-7.986-.156-12 3.032-9.82 13.985-9.018 18.662-17.015 4.691-8.022-.284-15.788 1.967-23.984 1.917-6.982 8.324-6.995 13.551-10.09 5.748-3.404 8.189-10.6 6.211-16.91-.675-2.153-1.798-4.083-3.421-5.66C656.1 73.793 650.055 73.99 644 74c-13.294.02-26.639 1-40 1-5.562 0-12.873-1.218-17.96 1.457-7.049 3.706-8.202 13.396-15.21 17.368-4.721 2.676-16.582 3.887-21.812 2.563-2.648-.67-4.761-2.572-4.962-5.407-.791-11.098 17.384-10.435 19.535-20.981 2.417-11.853-10.055-16.934-19.591-15.572m165.004 21.275c-7.352 2.517-9.326 11.002-14.444 16.072-5.526 5.476-13.888 5.44-16.027 14.225-1.776 7.296 2.556 16.46-1.391 22.995-4.411 7.304-14.227 7.102-18.092 15.02-4.03 8.256 2.18 18.395-2.792 25.941-2.746 4.167-7.343 4.554-11.153 7.188-4.023 2.782-6.011 8.051-5.841 12.856.411 11.633 10.021 11.299 16.411 18.108 3.983 4.244 6.617 9.571 12.325 11.883 6.31 2.555 14.339.545 21 1.179 15.423 1.467 30.488 1.83 46 1.83 6.03 0 14.301 1.446 19.999-.742 6.245-2.398 8.41-9.502 12.469-14.215 4.315-5.012 11.398-5.989 14.532-12.058 3.81-7.378 2.382-15.165 2.039-22.985-.538-12.286-.039-24.702-.039-37 0-11.058 3.932-26.456-3.499-35.945-7.686-9.814-20.528-.85-29.486-6.658-5.641-3.657-7.306-10.697-12.2-15.003C733.293 73.536 724.803 74.997 718 75c-2.958.001-6.152-.271-8.996.703m121.011 0c-7.009 2.43-8.771 10.2-13.344 15.192-4.391 4.796-11.069 5.86-14.099 12.106-3.927 8.094-1.794 16.538-1.587 24.999.416 16.978.015 34.016.015 51 0 11.062-6.488 29.683 1.394 38.895 7.346 8.585 19.948 3.944 29.606 3.815 9.032-.121 17.922 1.498 27 1.275 10.051-.246 19.872-1.985 30-1.985 8.81 0 20.725 2.069 29-1.287 5.188-2.104 8.474-6.259 9.532-11.713 1.241-6.402-.361-12.619-.517-19-.251-10.246.913-20.826-.439-31-.843-6.337-1.317-12.938-5.801-17.945-4.166-4.653-10.267-6.224-13.333-12.056-4.229-8.045-.186-17.573-4.859-25.994-2.938-5.293-8.384-6.186-12.478-10.138-4.685-4.524-6.35-11.483-12.12-15.009C874.132 74.503 869.324 75 865 75h-23c-3.844 0-8.296-.577-11.985.703z" fill="#fff"/><path d="M527 100.465c-8.995.739-19.833.243-24.276 9.535-2.595 5.426-4.959 25.98 4.295 25.768 9.428-.217 11.399-8.99 17.165-14.555 3.244-3.13 7.806-4.372 10.283-8.318 4.275-6.809.571-13.092-7.467-12.43m520.6.563c-3.26 2.588-1.12 9.259.91 11.913 3.81 4.97 9.82 3.246 14.19 6.797 6.8 5.532 2.75 16.294 14.3 17.953 1.71.245 3.94.425 5.4-.72 3.52-2.767.76-9.98-1.37-12.746-3.7-4.8-10.39-3.164-14.52-6.953-5.91-5.431-2.32-16.111-13.51-17.159-1.69-.158-3.98-.205-5.4.915m-557.599 39.456c-9.84 2.093-12.229 18.62-.016 15.967 9.438-2.049 12.791-18.684.016-15.967z"/><path d="M213 332c8.713-1.152 17.6-5.509 26-8.201 8.604-2.757 17.362-4.519 26.001-7.324 4.402-1.43 8.469-2.621 12.999-3.644 2.032-.459 4.646-1.728 6.682-.674 2.407 1.245 2.271 4.549 2.313 6.843.095 5.158.237 8.993-5.014 11.231-15.71 6.695-32.597 11.123-48.981 15.845-6.607 1.904-13.116 5.552-20 5.924v24h30c-1.126-4.915-.746-10.886 5.043-12.566 5.943-1.726 13.8-.434 19.957-.434h43c.029-3.203-.225-7.068 2.434-9.397 3.111-2.726 10.4-3.76 14.396-4.807 9.156-2.401 18.729-7.286 28.17-7.796 0-1.797-.014-1.522-1-3 2.297.674 2.774.965 4 3 9.524-5.241 20.916-6.792 31-10.715 3.083-1.2 7.083-1.393 9.397-4.009 3.229-3.65 1.399-10.948.888-15.276-1.113-9.434-.987-20.558-.114-30 .51-5.522 1.71-10.872 5.934-14.775 3.477-3.214 7.963-4.234 10.787-8.269C423.868 247.986 423 231.674 423 220c0-5.125.462-10.399-2.228-14.999-2.534-4.332-6.712-7.989-11.772-8.787-7.454-1.176-17.616 2.461-23.535-3.442-3.759-3.749-5.869-8.85-9.649-12.584-3.992-3.943-9.196-5.721-12.773-10.228-4.282-5.398-6.328-12.528-14.043-13.746-6.51-1.029-19.008-1.931-24.91 1.243-5.314 2.857-7.893 9.058-11.608 13.5-3.38 4.042-8.364 5.697-12.017 9.372-3.724 3.745-5.852 8.789-9.649 12.458-3.143 3.037-7.348 4.621-10.49 7.681-3.451 3.36-5.422 7.893-8.652 11.438-3.24 3.556-7.838 5.094-11.209 8.434-3.462 3.428-5.5 7.993-8.791 11.555-4.012 4.344-9.866 6.083-13.195 11.195-5.508 8.459-.559 18.739-5.488 26.906-4.444 7.362-13.734 8.28-16.742 17.004-2.244 6.51-1.249 14.22-1.249 21 0 8.099-.986 15.979-2 24m204-11c9.993-2.408 19.172-6.652 29-9.455 4.447-1.269 9.428-1.5 14-2.545 1.597 12.64 2.113 26.275 2.01 39.015-.028 3.462-1.476 11.526 1.593 13.957C467.454 365.022 478.25 363 483 363c.178-19.664 26.654-12.502 37-24 3.191 2.476 5.348-.093 9-.778 7.872-1.476 17.596-4.117 25-7.305 3.204-1.38 7.231-1.329 8-4.917 10.252 1.735 21.672-3.883 30.985-7.739 2.818-1.167 7.11-1.239 8.426-4.42 1.508-3.643.589-8.969.589-12.841 0-8.992-.206-18.011.015-27 .221-9.038 5.879-22.862-.668-30.775C596.513 237.382 586.786 238 580 238c-10.467 0-20.596-1.505-31-1.961-5.545-.242-11.525.742-16.996-.267-7.913-1.46-10.462-11.632-17.019-15.544-4.548-2.714-10.821-2.776-15.985-3.228-9.371-.821-19.608-2.224-29-.787-9.664 1.478-11.334 10.501-17.326 16.573-5.246 5.318-11.862 6.252-14.449 14.214-2.117 6.515.226 13.634-1.928 20-2.905 8.585-12.501 9.69-16.764 17.015C413.912 293.672 417 310.155 417 321m565 2c9.57-.861 19.03-5.569 28-8.816 6.81-2.466 14.16-3.408 21-5.69 5.93-1.977 13.29-7.593 19.89-4.89 5.35 2.191 4.11 9.783 4.11 14.396 0 14.82-.13 28.469-3 43-6.56.036-13.49-.602-20 .129-10.24 1.15-20.98 4.119-31-.129l-1 9c8.1 0 19.01 1.943 26.79-.318 4.12-1.198 5.57-5.809 10.21-6.534 12.08-1.888 25.76-.148 38-.148v-16c16.93-2.412 32.69-14.939 50-15v-3c8.37-.07 15.05-4.204 23-6 0-10.697-1.43-21.252-.96-32 .37-8.392 2.45-16.898-1-25-3.62-8.535-14.06-9.55-17.3-18-3.94-10.291 2.94-27.998-12.74-31.606-10.37-2.385-23.59-.37-34 1.03-4.1.552-8.34.649-12 2.804-6.53 3.848-9.22 14.088-17.01 15.544-5.78 1.079-12.13.011-17.99.267-10.08.442-19.86 1.961-30 1.961-7.336 0-17.392-.676-22.272 6.108-5.464 7.595-1.042 19.522-.014 27.892 2.068 16.839-.714 34.166-.714 51m-363-13c4.472-1.19 9.632-3.389 13.427.479C636.019 314.14 635 320.331 635 325c0 12.872.582 25.421-2 38h22v-63c2.364-.482 2.518-.636 3-3 6.25-.198 11.248-3.433 17-5.549 10.938-4.024 22.403-7.359 34-6.451v78l21 1c0-3.485-.9-8.573 1.028-11.657 2.001-3.201 6.622-3.947 9.972-4.883 6.175-1.725 15.735-3.672 20.606-8.019 8.469-7.559.749-18.617 4.136-27.44 2.637-6.869 10.136-7.338 14.458-12.341 7.186-8.32 6.568-27.479 1.383-36.641C777.462 255.738 769.179 257 762 257h-31c-5.162 0-10.91.7-16-.228-10.261-1.871-12.587-15.708-23-18.239-7.982-1.94-16.857.072-25-.703-6.087-.579-14.311-3.15-19.961-.061-6.364 3.481-8.261 11.092-13.339 15.891-4.906 4.636-10.973 5.319-13.567 12.341-2.275 6.16-1.448 12.654-1.172 18.999.36 8.304.039 16.688.039 25m200 13c4.577-2.519 9.172-2.906 14-4.64a1369.612 1369.612 0 0132-11.071c5.082-1.684 12.203-4.639 16.392.324 3.305 3.916-1.255 13.285-.392 18.387-4.946.314-12.657 4.848-16 0-2.686.501-5.27.883-8 1v2a35.735 35.735 0 007-1l1 1v2c-3.706.997-9.089-.252-10 4-3.764-1.092-7.749-1.286-9 3-6.614-1.118-12.61 1.749-19 3 2.213 3.018 5.942 3.859 8.699 6.39 5.148 4.728 7.315 11.725 14.301 14.462 5.438 2.13 12.272 1.148 18 1.148h34c0-3.776-1.024-9.43 1.603-12.525 3.808-4.486 13.058-5.335 18.397-7.004 14.579-4.558 28.998-11.621 44-14.471-.905-5.102-.026-9.866-.001-15 .048-9.999.001-20 .001-30 0-5.588.634-11.597-1.055-16.999-2.437-7.796-8.473-8.295-13.841-13.226-5.412-4.971-7.144-12.852-14.105-16.317-5.795-2.885-13.845.031-19.999.452-13.981.958-29.236-2.233-43 .43-10.004 1.936-10.724 15.237-19.718 17.307-2.833.652-5.118-1.725-6.757-3.703-3.509-4.233-5.331-9.875-10.54-12.483-11.806-5.913-16.494 9.55-23.089 15.237-3.653 3.149-8.183 3.86-10.807 8.317-5.199 8.835-5.058 27.446 1.044 35.797 2.534 3.466 6.53 4.375 9.824 6.836 5.897 4.406 6.635 10.66 5.043 17.352m-129-33c2.944 1.056 5.893.244 9 0 0-1.797-.014-1.522-1-3l-8 3m10-3c1.769.779 3.036.912 5 1-1.769-.779-3.036-.912-5-1m-14 6c1.58-.684 1.777-.805 3-2-2.092.406-2.02.217-3 2m-13 2v2c3.89-.419 7.221-2.146 11-3v-2l-11 3z" fill="#fff"/><path d="M1474 355v-6c2.43-.825 3.85-2.557 6.13-3.701 3.12-1.57 7.42-1.964 10.87-2.299 2.8-2.125 5.53-1.989 9-2v-3c6.46-.361 12.98-2.724 19-5 .92 7.522 2 14.305 2 22h51c2.7-14.533 3-28.207 3-43 0-4.359 1.49-11.98-2.32-15.106-2.94-2.419-6.39-1.541-9.68-.564-6.39 1.901-12.6 4.398-19 6.24-27.04 7.786-54.69 14.969-81 25.009-9.09 3.468-18.71 7.042-28 9.881-8.11 2.478-16.62 4.789-13.68 15.481 1.53 5.563 9.27 4.059 13.68 4.059 9.58 0 19.4.628 28.96-.054 3.46-.247 6.55-1.72 10.04-1.946z"/><path d="M670 297l1 1-1-1m-4 1c-2.907 1.626-6.065 2.246-8 5 2.449-1.122 9.102-2.037 8-5m728 2l1 1-1-1m-6 1v2h4v-2h-4m-170 1v2h2v-2h-2m-7 2l-3 2c2.05.705 3.4.294 3-2m3.33.667c-.05.055-.11 1.111.34.666.05-.055.11-1.111-.34-.666M1397 304c-1.26 4.26-1 8.577-1 13h2c0-4.263.66-9.041-1-13m-352 3h3l-1-2c-1.64.545-1.45.365-2 2m-172 0c-2.97 1.241-5.85 2.345-9 3v2c2.702-.191 10.162-1.874 9-5m3 0v2h2v-2h-2m156 5c3.44-1.105 6.78-2.357 10-4-4.01-1.213-7.82.528-10 4m173.67-4.667c-.45.445.61.389.66.334.45-.445-.61-.389-.66-.334m19 0c-.45.445.61.389.66.334.45-.445-.61-.389-.66-.334M1050 309c.02 2.849.19 5.271 1 8 1.1-2.613.99-5.164 1-8h-2m151 0l1 1-1-1m166.67.333c-.45.445.61.389.66.334.45-.445-.61-.389-.66-.334M878 310v10h2v-10h-2m319 0v2h2v-2h-2m166 2c1.58-.684 1.78-.805 3-2-2.09.406-2.02.217-3 2m-741 2c1.991-.849 2.778-1.267 4-3-1.948.936-2.55 1.392-4 3m233-1c3.06 2.038 5.101 1.001 7-2l-7 2m504.33-1.333c-.05.055-.11 1.111.34.666.05-.055.11-1.111-.34-.666m-331.66.666c-.45.445.61.389.66.334.45-.445-.61-.389-.66-.334m165 0c-.45.445.61.389.66.334.45-.445-.61-.389-.66-.334M1023 313l1 2c1.64-.545 1.45-.365 2-2h-3m165 0l1 2c1.64-.545 1.45-.365 2-2h-3m35 0l1 1-1-1m131 0l1 2c1.63-.545 1.45-.365 2-2h-3m-503 1v2h2v-2h-2m334.33.667c-.05.055-.11 1.111.34.666.05-.055.11-1.111-.34-.666M843 316l-1 1v2c2.364-.482 2.518-.636 3-3h-2m4.667.333c-.445.445.611.389.666.334.445-.445-.611-.389-.666-.334M1016 316l1 1-1-1m163 0c1.25.685 1.55.749 3 1-1.25-.685-1.55-.749-3-1m-168 1v2h2v-2h-2m165 0v2h2c-.55-1.635-.36-1.455-2-2m-337.333 2.333c-.445.445.611.389.666.334.445-.445-.611-.389-.666-.334M1005 319c1.25.685 1.55.749 3 1-1.25-.685-1.55-.749-3-1m-893 1v2h2v-2h-2m593 0v5c.83-2.03.83-2.97 0-5m128 0v2h2v-2h-2m168 0v2h3v-2h-3m-172 2c1.248.685 1.548.749 3 1-1.248-.685-1.548-.749-3-1m168.667.333c-.445.445.611.389.666.334.445-.445-.611-.389-.666-.334M819 325c2.698.969 5.161.353 8 0v-2c-2.932.254-5.29.851-8 2m54.333-1.333c-.055.055-.111 1.111.334.666.055-.055.111-1.111-.334-.666M670 326h3l-1-2c-1.635.545-1.455.365-2 2m197-2c.98 1.783.908 1.594 3 2-1.223-1.195-1.42-1.316-3-2m-753 1l1 1-1-1m474.667.333c-.445.445.611.389.666.334.445-.445-.611-.389-.666-.334M667 325l1 1-1-1m-9 1v2c1.635-.545 1.455-.365 2-2h-2m490 0l1 1-1-1m-442.667 1.667c-.055.055-.111 1.111.334.666.055-.055.111-1.111-.334-.666M114 328v39c3.206-7.639 1-19.729 1-28 0-3.702.441-7.565-1-11m738.667 1.333c-.445.445.611.389.666.334.445-.445-.611-.389-.666-.334M846 332c2.093-.406 2.02-.217 3-2-1.58.684-1.777.805-3 2m119 0l1 1-1-1m-127 1v2h4v-2h-4m124.333.667c-.055.055-.111 1.111.334.666.055-.055.111-1.111-.334-.666M833 335c1.248.685 1.548.749 3 1-1.248-.685-1.548-.749-3-1m123 0l1 1-1-1m42.667.333c-.445.445.611.389.666.334.445-.445-.611-.389-.666-.334M828 336v2h2v-2h-2m-760.667 3.667c-.055.055-.11 1.111.334.666.055-.055.11-1.111-.334-.666z" fill="#fff"/><path d="M836 339l1 1-1-1z"/><path d="M535.667 341.333c-.445.445.611.389.666.334.445-.445-.611-.389-.666-.334M991 343l9 6c.45-2.783.3-5.2 0-8-3.339.071-6.111.269-9 2z" fill="#fff"/><path d="M994.333 342.667c-.055.055-.111 1.111.334.666.056-.056.111-1.111-.334-.666z"/><path d="M578 344c-7.999 4.857-19.993 6.398-29 9.376-6.223 2.057-11.418 1.926-12 9.624h23c4.257 0 8.926.518 12.996-.97 7.834-2.864 10.492-11.668 5.004-18.03m-400 1v2h2v-2h-2m953 10c-4.13.89-2.17 4.55-2 8 12.09-.033 20.72-4.982 21-18-6.05.786-19.12 2.475-19 10m-957-9v2h2v-2h-2m-5 2c1.223 1.195 1.42 1.316 3 2-.98-1.783-.908-1.594-3-2m-3.667 1.667c-.055.055-.111 1.111.334.666.055-.055.111-1.111-.334-.666M967 349c-.986 1.479-1 1.203-1 3-8.905-.964-9.723 6.322-16 11 7.818 5.105 19.491-5.574 17-14m-899.333 2.333c-.445.445.61.389.666.334.445-.445-.61-.389-.666-.334M159 351c1.81 1.24 1.777 1.184 4 1-1.506-.683-2.315-.826-4-1m219 1c-2.114 3.262-4.771 2.332-7.981 4.027-2.943 1.554-4.168 3.954-5.019 6.973 7.326-.381 13.289-4.06 16-11h-3m-311 2l1 1-1-1m82 0l1 1-1-1m-2.667 1.667c-.055.055-.111 1.111.334.666.055-.055.111-1.111-.334-.666M67 357l1 1-1-1m0 3v17h2v-17h-2m74 7c.684 1.58.805 1.777 2 3v-3h-2m587 1l-10 4c3.163 1.327 6.586 1 10 1 .301-1.931.468-3.154 0-5m56 1l1 4h8c-2.731-2.205-5.596-3.191-9-4m-669 8c.902 1.923 1.076 1.999 3 3-1.001-1.924-1.077-2.098-3-3m-74 2l1 1-1-1m26.667.333c-.445.445.61.389.666.334.445-.445-.61-.389-.666-.334M16 380v2h13v-2H16m15 0v2h2v-2h-2m17.333.667c-.055.055-.11 1.111.334.666.055-.055.11-1.111-.334-.666M51 380v2h3v-2h-3m9.333.667c-.055.055-.11 1.111.334.666.055-.055.11-1.111-.334-.666M63 380v2h2v-2h-2m-45 5l1 1-1-1m2.667 1.333c-.445.445.61.389.666.334.445-.445-.61-.389-.666-.334m3 0c-.445.445.61.389.666.334.445-.445-.61-.389-.666-.334M29 389l1 1-1-1m3 0c2.112 1.679 3.329 2.257 6 2-2.013-1.225-3.658-1.645-6-2m10 3c5.222 2.191 12.368 1 18 1-5.222-2.191-12.368-1-18-1m19 0c2.052.874 3.747.953 6 1-2.052-.874-3.747-.953-6-1m6.667 3.333c-.445.445.61.389.666.334.445-.445-.61-.389-.666-.334M68 398v2h2v-2h-2m1 4c-.97 3.31-.97 5.69 0 9 1.256-2.994 1.256-6.006 0-9m.333 13.667c-.055.055-.11 1.111.334.666.055-.055.11-1.111-.334-.666M88 514l-1 2h2c0-1.853.3-1.35-1-2m-8 9v2c1.635-.545 1.455-.365 2-2h-2z" fill="#fff"/></svg>