<?xml version="1.0" encoding="utf-8"?>
<!-- Generator: Adobe Illustrator 25.2.3, SVG Export Plug-In . SVG Version: 6.00 Build 0)  -->
<svg version="1.1" id="Слой_1" xmlns="http://www.w3.org/2000/svg" xmlns:xlink="http://www.w3.org/1999/xlink" x="0px" y="0px"
	 viewBox="0 0 1417 509" style="enable-background:new 0 0 1417 509;" xml:space="preserve">
<style type="text/css">
	.st0{display:none;}
	.st1{fill:#FFFFFF;}
</style>
<path class="st0" d="M0,0v509h1417V0H0z"/>
<path class="st1" d="M573,129c-8.5,15.2-20.1,28.5-28.2,44c-2.4,4.6-7.4,11.8-7.7,17c-0.3,4.7,4.6,10.2,6.9,14
	c6.8,11.3,13.5,22.8,20.4,34c22.4,36.1,44.1,72.6,66,109c6.2,10.4,12.5,20.7,18.8,31c2.4,3.9,5.1,10.5,9.1,13c5.1,3.1,15.9,1,21.7,1
	h54c-18.9-36-40.6-70.1-61.6-105c-21.3-35.4-42.7-70.8-64.3-106c-6.9-11.3-13.6-22.9-20.9-34c-4-6.1-8.7-11.6-12.3-18H573 M392,392
	c-3.7-5.2-8.6-9.1-12.7-14c-16.1-19.2-34.6-36.3-52.3-54c-5.6-5.6-11.7-10.9-16.7-17c-2-2.4-4.4-5.6-3.8-8.9
	c0.9-4.8,7.7-5.2,11.5-6.2c10.2-2.8,19.9-7.8,28-14.5c29.4-24.1,38.5-67.9,22.7-102.4c-2.9-6.4-6.7-12.5-11.2-18
	c-23.4-28.6-59.1-27-92.5-27h-72c-16.2,0-32.9-1.1-49,0.8c-3.7,0.5-13.5,0.7-16,3.8c-2.2,2.8-1,9.1-1,12.4v33v32
	c0,4.6-1,10.6,0.6,15c1.4,3.9,5.3,6.9,8,10c7.3,8.4,15.5,16.1,23.4,24c26.2,26.2,52.8,51.8,79,78l37,37c4.8,4.8,10.5,13,17,15.4
	c3.3,1.2,7.5,0.6,11,0.6h20H392 M771,133v65c0,8.5-2.3,20.9,0.6,29c1.9,5.4,7.5,10.1,11.4,14l24,24c29.2,29.2,58.8,57.8,88,87l27,27
	c4,4,8.5,10.4,14,12.4c3.3,1.2,7.5,0.6,11,0.6h20h69c-3.4-4.8-8-8.5-11.7-13c-15.2-18.3-32.4-34.1-49.3-51
	c-5.6-5.6-11.5-11.1-16.9-17c-2.8-3-6.2-6.7-7-10.8c-0.6-3.6,1.8-5.4,4.9-6.5c8.7-3,16.9-5.4,25-10c19.8-11.3,33.8-32.4,37.6-54.7
	c6.9-40.7-11.5-85.1-54.6-96.1c-20.2-5.1-42.3-2.9-63-2.9c-36.3,0-72.7-0.9-109,0C784.8,130.2,778.2,132.9,771,133 M1072,133v58
	c0,7.6-2.1,18.8,0.6,26c1.6,4.4,6.2,7.8,9.4,11l22,22l31,31c4.5,4.5,9.3,11.1,15,14c3.7,1.9,8.9,1,13,1h27c33,0,66.1-0.7,99-1v-64
	c-6.5-0.2-12.5-2.9-19-3.7c-9.2-1.1-18.8-0.3-28-0.3h-37c-6.9,0-14.2,0.7-21-0.9c-8.5-2.1-15.2-7.4-20.7-14.1
	c-2.3-2.8-5.4-7.1-3.8-10.9c1.4-3.4,5.4-3.1,8.5-3.1c7.7-0.1,15.3,0,23,0h98v-65c-6.2-0.1-11.8-2.8-18-3c-59.5-1.6-119.5-0.7-179,0
	C1085.1,130.1,1078.9,132.9,1072,133z"/>
<path class="st1" d="M524,210c-24.1,36.4-46.4,73.9-69.4,111c-11.4,18.4-23.3,36.6-32.8,56c-2.5,5.1-5.8,9.7-7.7,15h53
	c6,0,16.5,2,21.8-1c4.5-2.6,7.4-9.7,10-14c6.9-11.3,13.6-22.7,20.6-34c9.7-15.6,18.9-31.5,28.6-47c4-6.4,12-15.4,13.1-23
	c0.7-5-4.2-12.6-6.4-17C547,240.6,536.7,221.7,524,210 M1073,246c-2.1,48.4-2.1,97.6,0,146h216v-46c0-4.3,1.8-13.8-1-17.4
	c-1.6-2-5.7-2.1-8-2.8c-9.5-2.6-19.3-1.8-29-1.8h-70c-10.5,0-24.2,2.3-34-2c-9.7-4.2-12.4-18.4-19.2-26
	C1111.5,277.7,1093,260.1,1073,246 M128,256v135l21,1l43-1c0.3-16.3,1-32.6,1-49c0-6.4,1.4-14.8-0.6-21c-2.9-8.9-12.1-16.6-18.4-23
	C159.4,283.4,144.9,267.9,128,256 M772,256v135h64c0.7-16,1-31.9,1-48c0-6.8,1.4-15.4-0.5-22c-2.6-9.2-12-17.5-18.5-24
	C803.4,282.4,788.9,267.9,772,256z"/>
</svg>
